<svg width="48" height="48" viewBox="0 0 48 48" fill="none" xmlns="http://www.w3.org/2000/svg">
<g id="analytics" clip-path="url(#clip0_23_332)">
<g id="Group">
<g id="Group_2">
<path id="Vector" d="M45.3745 34.8774C45.7629 34.8774 46.0776 34.5626 46.0776 34.1743V24.5294C46.0776 23.7455 45.4398 23.1076 44.6558 23.1076H40.8115C40.0165 23.1076 39.3697 23.7544 39.3697 24.5496V28.9792H35.5101C34.9514 28.9792 34.4668 29.2992 34.2276 29.7651L33.0661 29.3152C32.704 29.1749 32.2967 29.3549 32.1564 29.717C32.016 30.079 32.196 30.4865 32.5581 30.6266L34.068 31.2113V34.8505H30.2081C29.4132 34.8505 28.7664 35.4973 28.7664 36.2925V40.7221H24.9069C24.4743 40.7221 24.0865 40.9146 23.822 41.2172L22.8899 35.7109L23.6441 34.5757C24.0871 34.8903 24.4897 35.2649 25.171 35.0942C25.5454 35.0005 25.859 34.7487 26.0315 34.4032L28.6678 29.1199L29.2766 29.3557C29.6392 29.4962 30.0461 29.3161 30.1864 28.9539C30.3266 28.5919 30.1467 28.1845 29.7847 28.0443L25.295 26.3056V23.8663C26.8789 22.6537 27.971 20.8315 28.219 18.753C30.1005 18.6694 31.5032 17.1641 31.5032 15.3724C31.5032 14.5426 31.1983 13.7511 30.6564 13.1402V10.0552C30.6564 4.51078 26.1457 0 20.6013 0C15.0567 0 10.5461 4.51078 10.5461 10.0552V13.2202C9.99808 13.8261 9.69968 14.5764 9.69968 15.3725C9.69968 17.1616 11.0988 18.6693 12.9834 18.753C13.2304 20.8446 14.3343 22.7427 16.073 23.9842V26.3057C16.0646 26.309 6.19005 30.137 6.1818 30.1404C6.0079 30.2119 1.92236 31.9464 1.92236 36.7215V46.3952C1.92236 47.2734 2.63674 47.9878 3.51499 47.9878C29.3581 47.9878 15.4919 47.9997 45.3744 47.9997C45.7628 47.9997 46.0775 47.6849 46.0775 47.2966V37.4557C46.0775 37.0673 45.7628 36.7525 45.3744 36.7525C44.986 36.7525 44.6712 37.0673 44.6712 37.4557V46.5936H40.776C40.776 46.3804 40.776 24.8335 40.776 24.5495C40.776 24.5298 40.792 24.5138 40.8115 24.5138H44.6558C44.6643 24.5138 44.6712 24.5208 44.6712 24.5293V34.1742C44.6712 34.5626 44.9861 34.8774 45.3745 34.8774ZM27.3506 28.6099L24.8185 33.6847C24.7665 33.6477 23.3297 32.6272 21.7021 31.4713L24.8156 27.628L27.3506 28.6099ZM22.4972 33.7612L21.7734 34.8507H19.6002L18.8765 33.7612L20.6869 32.4754L22.4972 33.7612ZM17.4794 26.5316V24.7775C18.4343 25.1872 19.5542 25.4245 20.7009 25.4245C21.8115 25.4245 22.9029 25.1798 23.8886 24.72V26.5383L20.6868 30.4907L17.4794 26.5316ZM30.0969 15.3725C30.0969 16.3677 29.3532 17.2315 28.2746 17.3387V13.4068C29.3233 13.5072 30.0969 14.3538 30.0969 15.3725ZM12.9283 17.3387C11.8484 17.2317 11.106 16.367 11.106 15.3725C11.106 14.3758 11.9713 13.5957 12.9283 13.4387V17.3387ZM12.9513 12.0178C12.613 12.0487 12.2388 12.1428 11.9524 12.2542V10.0552C11.9524 5.28628 15.8323 1.40634 20.6013 1.40634C25.3703 1.40634 29.2501 5.28619 29.2501 10.0552V12.1926C28.9401 12.0823 28.613 12.0156 28.2746 11.9955V11.8072C28.2748 11.1566 28.1799 11.1845 25.7219 8.54231C25.2698 8.05631 24.5465 7.98112 24.0078 8.33334C21.0819 10.2447 17.5567 11.1565 14.3678 10.9277C13.6984 10.8769 13.0784 11.339 12.9513 12.0178ZM14.3347 17.8509C14.3347 17.2617 14.3347 12.9454 14.3347 12.3349C17.8685 12.5716 21.6557 11.5352 24.7302 9.54094C25.9941 10.8989 26.6841 11.6143 26.8683 11.8517C26.8683 19.1139 26.8698 17.6128 26.8644 18.0052C26.7814 21.354 24.0279 24.0181 20.7009 24.0181C16.9118 24.0183 14.3347 21.0854 14.3347 17.8509ZM16.5537 27.6298L19.668 31.4738C18.6543 32.1937 17.082 33.3106 16.5551 33.6848L14.0229 28.6101L16.5537 27.6298ZM9.83646 46.5817V38.2199C9.83646 37.8316 9.52174 37.5168 9.13333 37.5168C8.74493 37.5168 8.43021 37.8316 8.43021 38.2199V46.5817H3.51518C3.41243 46.5817 3.32889 46.4981 3.32889 46.3954V36.7217C3.32889 32.94 6.52277 31.5237 6.71224 31.4432L12.7057 29.1197L15.3421 34.4034C15.5145 34.7489 15.8281 35.0007 16.2026 35.0944C16.8723 35.2621 17.2544 34.9132 17.7294 34.5759L18.4836 35.7112L16.6435 46.5817H9.83646ZM18.0698 46.5817L19.8173 36.2569H21.5562L23.3038 46.5817H18.0698ZM28.7666 46.5937H24.8713L24.8714 42.1642C24.8714 42.1445 24.8874 42.1285 24.9071 42.1285H28.7666V46.5937ZM34.0681 46.5937H30.1729C30.1729 45.0607 30.1729 37.8015 30.1729 36.2926C30.1729 36.2729 30.1888 36.257 30.2083 36.257H34.0682V46.5937H34.0681ZM39.3697 46.5937H35.4744C35.4744 45.8278 35.4744 31.2038 35.4744 30.7297V30.4211C35.4744 30.4014 35.4903 30.3855 35.51 30.3855H39.3696V46.5937H39.3697Z" fill="black" stroke="black" stroke-width="0.3"/>
</g>
</g>
</g>
<defs>
<clipPath id="clip0_23_332">
<rect width="48" height="48" fill="white"/>
</clipPath>
</defs>
</svg>
