<svg width="26" height="26" viewBox="0 0 26 26" fill="none" xmlns="http://www.w3.org/2000/svg">
<path id="Vector" d="M2.04681 25.6128C1.82553 25.8709 1.54894 26 1.21702 26C0.885106 26 0.599291 25.8801 0.359574 25.6404C0.119858 25.4007 0 25.1149 0 24.783C0 24.4511 0.129078 24.1745 0.387234 23.9532L23.9532 0.387234C24.027 0.313475 24.1099 0.248936 24.2021 0.193617C24.2943 0.138298 24.3957 0.0921985 24.5064 0.0553191C24.617 0.0184397 24.7184 -5.21541e-08 24.8106 -5.21541e-08C24.9028 -5.21541e-08 24.995 0.0184397 25.0872 0.0553191C25.1794 0.0921985 25.2716 0.138298 25.3638 0.193617C25.456 0.248936 25.539 0.313475 25.6128 0.387234C25.8709 0.608511 26 0.875886 26 1.18936C26 1.50284 25.8709 1.78865 25.6128 2.04681L2.04681 25.6128ZM24.783 26C24.5986 26 24.4142 25.9447 24.2298 25.834C24.0454 25.7234 23.8979 25.5759 23.7872 25.3915C23.6766 25.2071 23.6213 25.0043 23.6213 24.783V2.37872H1.21702C0.885106 2.37872 0.599291 2.26809 0.359574 2.04681C0.119858 1.82553 0 1.54894 0 1.21702C0 0.885106 0.119858 0.599291 0.359574 0.359574C0.599291 0.119858 0.885106 -5.21541e-08 1.21702 -5.21541e-08H24.783C25.0043 -5.21541e-08 25.2071 0.0553191 25.3915 0.165957C25.5759 0.276596 25.7234 0.424113 25.834 0.608511C25.9447 0.792908 26 0.995745 26 1.21702V24.783C26 25.1149 25.8801 25.4007 25.6404 25.6404C25.4007 25.8801 25.1149 26 24.783 26Z" fill="#071033"/>
</svg>
