<svg width="13" height="12" viewBox="0 0 13 12" fill="none" xmlns="http://www.w3.org/2000/svg">
<path id="Vector" d="M1.44468 11.8213C1.34255 11.9404 1.21489 12 1.0617 12C0.908511 12 0.776596 11.9447 0.665957 11.834C0.555319 11.7234 0.5 11.5915 0.5 11.4383C0.5 11.2851 0.559574 11.1574 0.678723 11.0553L11.5553 0.178724C11.5894 0.144681 11.6277 0.114894 11.6702 0.0893621C11.7128 0.0638302 11.7596 0.0425536 11.8106 0.0255323C11.8617 0.00851102 11.9085 3.7998e-07 11.9511 3.7998e-07C11.9936 3.7998e-07 12.0362 0.00851102 12.0787 0.0255323C12.1213 0.0425536 12.1638 0.0638302 12.2064 0.0893621C12.2489 0.114894 12.2872 0.144681 12.3213 0.178724C12.4404 0.280851 12.5 0.404256 12.5 0.548937C12.5 0.693617 12.4404 0.825532 12.3213 0.944681L1.44468 11.8213ZM11.9383 12C11.8532 12 11.7681 11.9745 11.683 11.9234C11.5979 11.8723 11.5298 11.8043 11.4787 11.7191C11.4277 11.634 11.4021 11.5404 11.4021 11.4383V1.09787H1.0617C0.908511 1.09787 0.776596 1.04681 0.665957 0.944681C0.555319 0.842554 0.5 0.714894 0.5 0.561702C0.5 0.408511 0.555319 0.276596 0.665957 0.165958C0.776596 0.0553195 0.908511 3.7998e-07 1.0617 3.7998e-07H11.9383C12.0404 3.7998e-07 12.134 0.0255323 12.2191 0.0765961C12.3043 0.12766 12.3723 0.195745 12.4234 0.280851C12.4745 0.365958 12.5 0.459575 12.5 0.561702V11.4383C12.5 11.5915 12.4447 11.7234 12.334 11.834C12.2234 11.9447 12.0915 12 11.9383 12Z" fill="#5EB01E"/>
</svg>
