<svg width="48" height="48" viewBox="0 0 48 48" fill="none" xmlns="http://www.w3.org/2000/svg">
<g id="auditing 1">
<path id="Vector" d="M12.2834 16.3588H7.36866C6.60131 16.3588 5.97713 16.9831 5.97713 17.7504V22.6653C5.97713 23.4326 6.60141 24.0569 7.36866 24.0569H12.2835C13.0508 24.0569 13.6751 23.4326 13.6751 22.6653V17.7504C13.675 16.9831 13.0507 16.3588 12.2834 16.3588ZM12.175 22.5568H7.47703V17.8588H12.175V22.5568ZM7.98834 20.6111C7.69547 20.3182 7.69547 19.8434 7.98834 19.5504C8.28122 19.2577 8.75606 19.2577 9.04894 19.5504L9.53709 20.0386L10.5503 18.786C10.8109 18.464 11.2831 18.414 11.6051 18.6746C11.9272 18.9351 11.977 19.4074 11.7165 19.7294L10.1791 21.6299C10.0454 21.7953 9.84778 21.896 9.63544 21.9072C9.62222 21.9079 9.60909 21.9083 9.59597 21.9083C9.39759 21.9083 9.20672 21.8296 9.06572 21.6886L7.98834 20.6111ZM12.2834 25.2056H7.36866C6.60131 25.2056 5.97713 25.8299 5.97713 26.5973V31.5121C5.97713 32.2794 6.60141 32.9037 7.36866 32.9037H12.2835C13.0508 32.9037 13.6751 32.2794 13.6751 31.5121V26.5973C13.675 25.8299 13.0507 25.2056 12.2834 25.2056ZM12.175 31.4037H7.47703V26.7057H12.175V31.4037ZM7.98834 29.4579C7.69547 29.165 7.69547 28.6902 7.98834 28.3973C8.28122 28.1045 8.75606 28.1045 9.04894 28.3973L9.53709 28.8854L10.5503 27.6328C10.8109 27.3107 11.2831 27.2608 11.6051 27.5214C11.9272 27.7819 11.977 28.2542 11.7165 28.5762L10.1791 30.4767C10.0454 30.6421 9.84778 30.7428 9.63544 30.754C9.62222 30.7547 9.60909 30.7551 9.59597 30.7551C9.39759 30.7551 9.20672 30.6764 9.06572 30.5354L7.98834 29.4579ZM12.2834 34.0525H7.36866C6.60131 34.0525 5.97713 34.6768 5.97713 35.4442V40.359C5.97713 41.1263 6.60141 41.7505 7.36866 41.7505H12.2835C13.0508 41.7505 13.6751 41.1263 13.6751 40.359V35.4442C13.675 34.6768 13.0507 34.0525 12.2834 34.0525ZM12.175 40.2504H7.47703V35.5525H12.175V40.2504ZM7.98834 38.3048C7.69547 38.0118 7.69547 37.537 7.98834 37.2441C8.28122 36.9513 8.75606 36.9513 9.04894 37.2441L9.53709 37.7322L10.5503 36.4796C10.8109 36.1576 11.2831 36.1075 11.6051 36.3683C11.9272 36.6287 11.977 37.101 11.7165 37.423L10.1791 39.3235C10.0454 39.4889 9.84778 39.5896 9.63544 39.6008C9.62222 39.6015 9.60909 39.6019 9.59597 39.6019C9.39759 39.6019 9.20672 39.5232 9.06572 39.3822L7.98834 38.3048ZM16.8412 18.1864H24.8876C25.3018 18.1864 25.6376 18.5222 25.6376 18.9364C25.6376 19.3506 25.3018 19.6864 24.8876 19.6864H16.8412C16.4271 19.6864 16.0912 19.3506 16.0912 18.9364C16.0912 18.5222 16.4271 18.1864 16.8412 18.1864ZM22.829 21.4793C22.829 21.8934 22.4932 22.2293 22.079 22.2293H16.8412C16.4271 22.2293 16.0912 21.8934 16.0912 21.4793C16.0912 21.0651 16.4271 20.7293 16.8412 20.7293H22.079C22.4932 20.7293 22.829 21.0651 22.829 21.4793ZM25.6376 36.6301C25.6376 37.0443 25.3018 37.3801 24.8876 37.3801H16.8412C16.4271 37.3801 16.0912 37.0443 16.0912 36.6301C16.0912 36.2159 16.4271 35.8801 16.8412 35.8801H24.8876C25.3018 35.8801 25.6376 36.2159 25.6376 36.6301ZM22.829 39.173C22.829 39.5872 22.4932 39.923 22.079 39.923H16.8412C16.4271 39.923 16.0912 39.5872 16.0912 39.173C16.0912 38.7588 16.4271 38.423 16.8412 38.423H22.079C22.4932 38.423 22.829 38.7588 22.829 39.173ZM5.97713 12.1794C5.97713 11.7653 6.31294 11.4294 6.72712 11.4294H20.6367C21.0509 11.4294 21.3867 11.7653 21.3867 12.1794C21.3867 12.5936 21.0509 12.9294 20.6367 12.9294H6.72712C6.31284 12.9294 5.97713 12.5936 5.97713 12.1794ZM46.7906 39.2168L42.1628 34.7262C41.8729 34.4446 41.4885 34.29 41.0842 34.2991C40.8941 34.3019 40.7107 34.3404 40.5398 34.4092L38.7825 32.704C39.6138 31.3239 40.0927 29.7085 40.0927 27.9834C40.0927 25.1679 38.8179 22.6451 36.8158 20.9603V7.89694C36.8158 7.48819 36.6631 7.11919 36.3739 6.82979L32.1119 2.56791C31.8228 2.27879 31.4538 2.12598 31.0449 2.12598H7.77544C6.94341 2.12598 6.26634 2.80295 6.26634 3.63507V6.72291H2.25909C1.42697 6.72291 0.75 7.39998 0.75 8.2321V44.3646C0.75 45.1967 1.42697 45.8737 2.25909 45.8737H29.7904C30.6224 45.8737 31.2994 45.1967 31.2994 44.3646V41.2767H35.3066C36.1387 41.2767 36.8157 40.5998 36.8157 39.7676V35.848L38.0146 37.0114C37.9511 37.1843 37.918 37.3688 37.9209 37.5588C37.927 37.9643 38.0902 38.3427 38.3801 38.624L43.0081 43.1148C43.2925 43.3907 43.6664 43.5419 44.0632 43.5419C44.0709 43.5419 44.0788 43.5418 44.0866 43.5417C44.4922 43.5357 44.8704 43.3725 45.1519 43.0825L46.8227 41.3606C47.405 40.7608 47.3905 39.7991 46.7906 39.2168ZM39.4013 35.3947L38.9654 35.8439L37.4734 34.3961C37.6193 34.2469 37.7603 34.0928 37.896 33.9339L39.4013 35.3947ZM38.5927 27.9833C38.5927 32.2164 35.1487 35.6605 30.9154 35.6605C26.6821 35.6605 23.2381 32.2165 23.2381 27.9833C23.2381 23.75 26.6821 20.3059 30.9154 20.3059C35.1487 20.3059 38.5927 23.75 38.5927 27.9833ZM26.5929 9.28369L28.7388 11.4294H26.5929V9.28369ZM34.2552 6.8326H32.1093V4.68666L34.2552 6.8326ZM7.76634 3.63507C7.76634 3.63113 7.7715 3.62598 7.77544 3.62598H30.6093V7.20291C30.6093 7.82579 31.116 8.33251 31.7388 8.33251H35.3158V19.9317C34.1141 19.2724 32.7497 18.8745 31.2995 18.8145V12.4939C31.2995 12.0851 31.1468 11.7161 30.8575 11.4267L26.5955 7.16485C26.3062 6.87563 25.9372 6.72282 25.5285 6.72282H7.76634V3.63507ZM29.7905 44.3736H2.25909C2.25516 44.3736 2.25 44.3684 2.25 44.3645V8.2321C2.25 8.22816 2.25516 8.22291 2.25909 8.22291H25.0929V11.7999C25.0929 12.4228 25.5997 12.9294 26.2224 12.9294H29.7995V18.8739C25.5742 19.3884 22.2259 22.7854 21.787 27.0333H16.8412C16.4271 27.0333 16.0912 27.3691 16.0912 27.7833C16.0912 28.1975 16.4271 28.5333 16.8412 28.5333H21.755C21.776 28.8866 21.8167 29.2346 21.8768 29.5762H16.8412C16.4271 29.5762 16.0912 29.912 16.0912 30.3262C16.0912 30.7403 16.4271 31.0762 16.8412 31.0762H22.079C22.1438 31.0762 22.2063 31.0671 22.2663 31.0516C23.4116 34.2705 26.3055 36.6671 29.7995 37.0926V44.3646C29.7995 44.3685 29.7943 44.3736 29.7905 44.3736ZM35.3067 39.7767H31.2995V37.1519C32.7497 37.0919 34.1141 36.6941 35.3158 36.0347V39.7676C35.3158 39.7715 35.3106 39.7767 35.3067 39.7767ZM45.7463 40.3161L44.0754 42.038C44.0754 42.0381 44.0754 42.0381 44.0753 42.0381C44.07 42.0436 44.058 42.0435 44.0527 42.0383L39.4247 37.5475C39.4192 37.5422 39.4192 37.5302 39.4244 37.5248L41.0952 35.8029C41.0979 35.8001 41.1023 35.7987 41.1068 35.7987C41.1112 35.7987 41.1154 35.8 41.1181 35.8027L45.746 40.2933C45.7511 40.2983 45.7514 40.3109 45.7463 40.3161ZM30.9153 21.2046C27.1776 21.2046 24.1367 24.2454 24.1367 27.9832C24.1367 31.7209 27.1776 34.7618 30.9153 34.7618C34.653 34.7618 37.6939 31.7209 37.6939 27.9832C37.6939 24.2454 34.653 21.2046 30.9153 21.2046ZM30.9153 33.2617C28.0046 33.2617 25.6367 30.8937 25.6367 27.9831C25.6367 25.0724 28.0046 22.7045 30.9153 22.7045C33.8259 22.7045 36.1939 25.0724 36.1939 27.9831C36.1939 30.8937 33.8259 33.2617 30.9153 33.2617ZM33.5832 29.3039C33.6523 29.873 33.4981 30.3943 33.1372 30.8116C32.7954 31.2068 32.2695 31.4906 31.6653 31.6192V31.7979C31.6653 32.2121 31.3295 32.5479 30.9153 32.5479C30.5011 32.5479 30.1653 32.2121 30.1653 31.7979V31.6062C29.2101 31.3735 28.4826 30.7043 28.2535 29.7862C28.1533 29.3843 28.3979 28.9772 28.7998 28.877C29.2016 28.7773 29.6087 29.0214 29.709 29.4233C29.8558 30.012 30.4809 30.2078 30.9761 30.1954C31.4102 30.1852 31.8228 30.0384 32.0028 29.8302C32.0606 29.7633 32.1167 29.6699 32.0943 29.4845C32.0731 29.3103 32.0236 28.9023 30.7994 28.7013C28.8136 28.3751 28.4647 27.2455 28.4333 26.6013C28.3825 25.554 29.0737 24.6731 30.1654 24.3735V24.168C30.1654 23.7538 30.5012 23.418 30.9154 23.418C31.3296 23.418 31.6654 23.7538 31.6654 24.168V24.3667C32.3696 24.5523 33.0289 25.0209 33.3817 25.8612C33.5421 26.2431 33.3625 26.6828 32.9806 26.8431C32.5985 27.0035 32.1591 26.8238 31.9988 26.4419C31.7116 25.7579 30.9997 25.7195 30.6243 25.8045C30.4553 25.8428 29.9062 26.0082 29.9316 26.5285C29.9384 26.6693 29.9565 27.0428 31.0424 27.2212C32.5914 27.4756 33.4463 28.1764 33.5832 29.3039Z" fill="black"/>
</g>
</svg>
