<svg width="21" height="22" viewBox="0 0 21 22" fill="none" xmlns="http://www.w3.org/2000/svg">
<g id="call">
<g id="Group">
<g id="Group_2">
<g id="Group_3">
<path id="Vector" d="M19.7252 16.4292L15.6771 13.7296C15.1634 13.3898 14.4748 13.5016 14.095 13.9866L12.9158 15.5027C12.7643 15.7025 12.4888 15.7604 12.2696 15.6386L12.0453 15.515C11.3017 15.1097 10.3766 14.6051 8.51251 12.7404C6.64845 10.8757 6.14286 9.94981 5.73757 9.20761L5.61458 8.98331C5.49112 8.76412 5.54799 8.48748 5.74788 8.33473L7.26297 7.15592C7.74774 6.7761 7.85972 6.08768 7.52028 5.57382L4.82068 1.52574C4.4728 1.00246 3.77485 0.845377 3.2363 1.16912L1.54355 2.18596C1.01167 2.49865 0.621456 3.00506 0.454723 3.59907C-0.154835 5.82007 0.303729 9.65317 5.95024 15.3003C10.4419 19.7917 13.7858 20.9995 16.0841 20.9995C16.613 21.0018 17.1399 20.9329 17.6505 20.7949C18.2447 20.6283 18.7511 20.2381 19.0636 19.7061L20.0815 18.0143C20.4057 17.4756 20.2487 16.7773 19.7252 16.4292ZM19.5072 17.6723L18.4917 19.3651C18.2673 19.7491 17.903 20.0314 17.4752 20.153C15.4248 20.7159 11.8427 20.2496 6.42181 14.8288C1.00093 9.4079 0.534711 5.82608 1.09764 3.77541C1.21934 3.34704 1.50203 2.98229 1.8865 2.75755L3.57926 1.74204C3.81294 1.60144 4.11586 1.66959 4.26681 1.89667L5.73328 4.09833L6.96411 5.94439C7.11151 6.16728 7.06308 6.46603 6.8528 6.63096L5.33736 7.80977C4.87618 8.16242 4.74448 8.80049 5.02842 9.30689L5.14875 9.52553C5.57471 10.3067 6.10427 11.2786 8.03766 13.2117C9.97104 15.1447 10.9426 15.6743 11.7234 16.1002L11.9424 16.2209C12.4488 16.5048 13.0869 16.3731 13.4395 15.9119L14.6183 14.3965C14.7833 14.1863 15.0819 14.1379 15.3049 14.2852L19.3526 16.9848C19.5799 17.1356 19.648 17.4387 19.5072 17.6723Z" fill="white" stroke="white" stroke-width="0.3"/>
<path id="Vector_2" d="M11.5828 4.33549C14.7105 4.33896 17.2451 6.87363 17.2486 10.0013C17.2486 10.1854 17.3978 10.3346 17.5819 10.3346C17.766 10.3346 17.9152 10.1854 17.9152 10.0013C17.9113 6.50563 15.0785 3.67277 11.5828 3.66895C11.3987 3.66895 11.2495 3.81814 11.2495 4.00222C11.2495 4.18629 11.3987 4.33549 11.5828 4.33549Z" fill="white" stroke="white" stroke-width="0.3"/>
<path id="Vector_3" d="M11.5828 6.33549C13.6065 6.33787 15.2465 7.97786 15.2489 10.0016C15.2489 10.1857 15.3982 10.3349 15.5822 10.3349C15.7663 10.3349 15.9155 10.1857 15.9155 10.0016C15.9127 7.60987 13.9745 5.67168 11.5828 5.66895C11.3987 5.66895 11.2495 5.81814 11.2495 6.00222C11.2495 6.18629 11.3987 6.33549 11.5828 6.33549Z" fill="white" stroke="white" stroke-width="0.3"/>
<path id="Vector_4" d="M11.5828 8.33451C12.5026 8.3356 13.2481 9.08104 13.2492 10.0009C13.2492 10.185 13.3985 10.3342 13.5825 10.3342C13.7665 10.3342 13.9158 10.185 13.9158 10.0009C13.9143 8.71309 12.8706 7.66941 11.5828 7.66797C11.3987 7.66797 11.2495 7.81717 11.2495 8.00124C11.2495 8.18531 11.3987 8.33451 11.5828 8.33451Z" fill="white" stroke="white" stroke-width="0.3"/>
</g>
</g>
</g>
</g>
</svg>
