<svg width="21" height="21" viewBox="0 0 21 21" fill="none" xmlns="http://www.w3.org/2000/svg">
<g id="envelope" clip-path="url(#clip0_23_492)">
<g id="Group">
<g id="Group_2">
<path id="Vector" d="M18.5833 2.80078H1.91668C0.997461 2.80078 0.25 3.54824 0.25 4.46746V16.1341C0.25 17.0533 0.997461 17.8008 1.91668 17.8008H18.5834C19.5025 17.8008 20.25 17.0533 20.25 16.1341V4.46746C20.25 3.54824 19.5025 2.80078 18.5833 2.80078ZM1.91668 3.6341H18.5834C18.6448 3.6341 18.6989 3.65648 18.7565 3.66914C17.3136 4.98973 12.529 9.36676 10.8547 10.8753C10.7237 10.9933 10.5125 11.1341 10.25 11.1341C9.98758 11.1341 9.77641 10.9933 9.64496 10.8749C7.97078 9.3666 3.18598 4.98934 1.74328 3.66922C1.80102 3.65656 1.85523 3.6341 1.91668 3.6341ZM1.08332 16.1341V4.46746C1.08332 4.38582 1.10793 4.31176 1.12996 4.23715C2.23434 5.24793 5.57277 8.30199 7.73746 10.2705C5.5798 12.1239 2.24051 15.2898 1.12734 16.3513C1.1077 16.2804 1.08332 16.2111 1.08332 16.1341ZM18.5833 16.9675H1.91668C1.85012 16.9675 1.79094 16.9443 1.72879 16.9294C2.87906 15.8329 6.23961 12.6487 8.35934 10.8353C8.63566 11.086 8.88809 11.3145 9.08707 11.4938C9.43051 11.8039 9.8325 11.9675 10.25 11.9675C10.6675 11.9675 11.0695 11.8039 11.4125 11.4942C11.6116 11.3148 11.8642 11.0861 12.1407 10.8353C14.2605 12.6485 17.6206 15.8324 18.7712 16.9294C18.7091 16.9443 18.65 16.9675 18.5833 16.9675ZM19.4167 16.1341C19.4167 16.2111 19.3923 16.2804 19.3727 16.3513C18.2591 15.2893 14.9202 12.1237 12.7626 10.2705C14.9273 8.30203 18.2653 5.24824 19.37 4.23707C19.3921 4.31168 19.4167 4.38578 19.4167 4.46742V16.1341Z" fill="white"/>
</g>
</g>
</g>
<defs>
<clipPath id="clip0_23_492">
<rect width="20" height="20" fill="white" transform="translate(0.25 0.300781)"/>
</clipPath>
</defs>
</svg>
