<?xml version="1.0" encoding="utf-8"?>
<!-- Generator: Adobe Illustrator 24.3.0, SVG Export Plug-In . SVG Version: 6.00 Build 0)  -->
<!DOCTYPE svg PUBLIC "-//W3C//DTD SVG 1.1//EN" "http://www.w3.org/Graphics/SVG/1.1/DTD/svg11.dtd" [
	<!ENTITY ns_extend "http://ns.adobe.com/Extensibility/1.0/">
	<!ENTITY ns_ai "http://ns.adobe.com/AdobeIllustrator/10.0/">
	<!ENTITY ns_graphs "http://ns.adobe.com/Graphs/1.0/">
	<!ENTITY ns_vars "http://ns.adobe.com/Variables/1.0/">
	<!ENTITY ns_imrep "http://ns.adobe.com/ImageReplacement/1.0/">
	<!ENTITY ns_sfw "http://ns.adobe.com/SaveForWeb/1.0/">
	<!ENTITY ns_custom "http://ns.adobe.com/GenericCustomNamespace/1.0/">
	<!ENTITY ns_adobe_xpath "http://ns.adobe.com/XPath/1.0/">
]>
<svg version="1.1" id="Layer_1" xmlns:x="&ns_extend;" xmlns:i="&ns_ai;" xmlns:graph="&ns_graphs;"
	 xmlns="http://www.w3.org/2000/svg" xmlns:xlink="http://www.w3.org/1999/xlink" x="0px" y="0px" viewBox="0 0 502.6 67.9"
	 style="enable-background:new 0 0 502.6 67.9;" xml:space="preserve">
<style type="text/css">
	.st0{fill:#FFFFFF;}
</style>
<metadata>
	<sfw  xmlns="&ns_sfw;">
		<slices></slices>
		<sliceSourceBounds  bottomLeftOrigin="true" height="67.9" width="502.6" x="145.3" y="-340"></sliceSourceBounds>
	</sfw>
</metadata>
<g>
	<path class="st0" d="M431.2,11.5L435.9,0c-19.6,0-64.3,0-83.3,0l0,0c-17.5,0-73.6,0-90.1,0L245,40.6L242.1,0c-31.2,0-81,0-112.3,0
		L89.9,54.1l19.3-47.2c0.8-4.6-1.2-6.9-5.7-6.9C89.8,0,41.3,0,26.7,0l-9.6,11.4c17.4,0,57.9,0,74.8,0L68.5,66.6h29.8l40-55.1
		c22.4,0,58.4,0,80.6,0l-24.1,55.1h15l21.5-47.4l3.3,41.6c0.3,7.2,7.9,5.8,13,5.9l24.1-55.1h29.2l-24.1,55.1h14.9l24.2-55.2h30.7
		l-11,20.4c-2.9,6.1,0.9,8.2,6.2,8.2h28.6l-7.2,15.4h-35L322,66.4c14.4,0.1,35.6,0.2,50.1,0.2L386,36c2-4.9,3.1-8.2-2.2-8.2h-30.7
		l8.2-16.3H431.2z"/>
	<polygon class="st0" points="409.8,67.6 399.4,67.6 418,23.8 428.4,23.8 	"/>
	<path class="st0" d="M499.1,32.9l3.5-9.6h-13.3l-4.8-0.1h-3.3l-16.4,37.2c-1.8,4.7-1.9,6.6,1,7.5h24.1l2.6-9.8h-16.3l10.6-25.3
		H499.1z"/>
	<path class="st0" d="M460.5,23.6h10.8L452,67.9h-6.3c-2.4,0-3.8-1.2-4.1-3.5L440,44.3l-9.4,23.7h-10.9l13.8-31.6l0.2-0.3l5.9-12.4
		h9.3l0.1,25.7L460.5,23.6z"/>
	<path class="st0" d="M62.8,35.2l6.7-12.5c-12,0-31.8-0.1-43.7-0.1L2.2,58.6c-3.5,4.7-2.8,7.5,2,7.5H49l5.8-12.7H22.6l10.9-18.2
		H62.8z"/>
	<path class="st0" d="M188,35.3l5.7-12.5c-12,0-30.8-0.1-42.7-0.1l-23.7,36.1c-3.5,4.7-2.8,7.5,2,7.5h44.9l5.8-12.7h-32.2l10.9-18.2
		H188z"/>
</g>
</svg>
