<?xml version="1.0" encoding="UTF-8"?>
<svg xmlns="http://www.w3.org/2000/svg" width="301" height="63" viewBox="0 0 301 63" fill="none">
  <path d="M41.9736 18.095L41.9736 0L33.388 7.68712e-10L33.388 18.095L41.9736 18.095Z" fill="white"></path>
  <path d="M41.9731 62.029L41.9731 43.9341L33.3875 43.9341L33.3875 62.029L41.9731 62.029Z" fill="white"></path>
  <path d="M26.3725 39.0075L15.9084 53.7983L22.9264 58.7259L33.3904 43.935L26.3725 39.0075Z" fill="white"></path>
  <path d="M41.9759 43.9335L52.4399 58.7244L59.4579 53.7969L48.9938 39.006L41.9759 43.9335Z" fill="white"></path>
  <path d="M48.9848 39.011L65.9768 45.4058L69.011 37.4042L52.019 31.0095L48.9848 39.011Z" fill="white"></path>
  <path d="M48.9901 23.0203L59.4541 8.22949L52.4362 3.30198L41.9721 18.0928L48.9901 23.0203Z" fill="white"></path>
  <path d="M52.0229 31.0117L69.0149 24.6169L65.9807 16.6154L48.9887 23.0102L52.0229 31.0117Z" fill="white"></path>
  <path d="M6.55446 12.5032C4.06667 10.5651 2.75711 7.73818 2.80652 5.03955V5.02918L2.81693 5.02659C5.43476 4.32959 8.50256 4.91517 10.9903 6.85332C13.4781 8.79146 14.7864 11.6171 14.7383 14.317V14.3274L14.7279 14.3299C12.11 15.0282 9.04225 14.4427 6.55446 12.5032Z" fill="white"></path>
  <path d="M5.09392 33.2618C2.96896 33.2605 1.10019 32.3044 0.00390322 30.8534L0 30.8482L0.00520296 30.843C1.10279 29.3933 2.97286 28.4372 5.09652 28.4385C7.22147 28.4398 9.08894 29.3959 10.1865 30.8469L10.1904 30.8521L10.1865 30.8573C9.08764 32.307 7.21887 33.2631 5.09392 33.2618Z" fill="white"></path>
  <path d="M17.9918 42.2167C14.4493 43.5459 10.73 43.1197 7.98599 41.3888L7.97559 41.3823L7.97949 41.3707C8.89371 38.2665 11.4075 35.5018 14.95 34.1739C18.4924 32.8447 22.2105 33.2709 24.9544 35.0018L24.9648 35.0082L24.9609 35.0199C24.048 38.124 21.5342 40.8887 17.9918 42.2167Z" fill="white"></path>
  <path d="M14.8983 27.849C11.3481 26.5417 8.81735 23.7926 7.88232 20.6936L7.87842 20.682L7.89012 20.6755C10.6224 18.9265 14.3391 18.4782 17.8894 19.7854C21.4397 21.0927 23.9691 23.8405 24.9054 26.9395L24.9093 26.9511L24.8989 26.9576C22.1653 28.7079 18.4486 29.1562 14.8983 27.849Z" fill="white"></path>
  <path d="M28.1107 10.6816C25.9129 7.61243 22.5863 5.90101 19.3391 5.81551L19.3274 5.81421L19.3248 5.82717C18.3481 8.91187 18.8891 12.6029 21.0869 15.6734C23.2847 18.7425 26.6112 20.4539 29.8572 20.5394L29.8702 20.5407L29.8728 20.5291C30.8495 17.4431 30.3085 13.7521 28.1107 10.6816Z" fill="white"></path>
  <path d="M287.595 40.0312C289.061 40.0312 289.889 39.4612 290.186 39.101L289.123 37.3041C288.932 37.4738 288.615 37.6643 288.147 37.6643C287.509 37.6643 287.149 37.3248 287.149 36.5423V31.399H289.846V29.181H287.149V26.4305H284.604V29.181H282.778V31.399H284.604V36.9025C284.604 38.9741 285.96 40.0312 287.595 40.0312ZM279.6 33.3488H273.949C274.182 32.1426 275.138 30.9766 276.86 30.9766C278.686 30.9766 279.535 32.3965 279.6 33.3488ZM281.847 35.2921V34.3204C281.847 31.1036 279.917 28.8843 276.836 28.8843C273.819 28.8843 271.486 31.2513 271.486 34.4474C271.486 37.7057 273.819 40.0312 276.857 40.0312C279.449 40.0312 280.976 38.6787 281.591 36.9867L279.449 36.3298C279.194 37.0502 278.345 37.9389 276.857 37.9389C275.178 37.9389 274.031 36.6265 273.925 35.2921H281.847ZM260.133 39.7345H262.678V33.9382C262.678 32.14 263.719 31.2305 265.015 31.2305C266.205 31.2305 267.076 31.8226 267.076 33.6843V39.7345H269.621V33.3462C269.621 30.2589 268.221 28.8843 265.823 28.8843C264.251 28.8843 263.252 29.5826 262.594 30.448L262.234 29.181H260.133V39.7345ZM253.129 37.9817C251.961 37.9817 251.26 37.4311 251.26 36.6265C251.26 35.7585 251.855 35.3141 253.173 35.125L255.276 34.8076V36.0344C255.275 37.3041 254.276 37.9817 253.129 37.9817ZM252.45 40.0312C254.15 40.0312 254.978 39.377 255.404 38.7849L255.679 39.7345H257.821V32.7956C257.821 30.0464 255.764 28.8843 253.406 28.8843C250.878 28.8843 249.541 29.9829 248.969 32.0765L251.217 32.6259C251.386 31.548 251.982 30.9131 253.32 30.9131C254.68 30.9131 255.275 31.6322 255.275 32.8383V32.9653L253.002 33.2827C249.626 33.7478 248.819 35.2286 248.819 36.7729C248.821 38.7849 250.453 40.0312 252.45 40.0312ZM244.331 39.7345H246.876V24.929H244.331V39.7345ZM234.8 32.0377V27.2545H237.308C239.135 27.2545 240.006 28.2495 240.006 29.6241C240.006 30.9999 239.176 32.0377 237.328 32.0377H234.8ZM232.212 39.7345H234.8V34.3606H237.647C240.175 34.3606 242.594 32.8603 242.594 29.6228C242.594 26.301 240.218 24.9277 237.521 24.9277H232.214V39.7345H232.212ZM218.833 37.7498C217.156 37.7498 215.881 36.3739 215.881 34.4487C215.881 32.5442 217.156 31.1684 218.833 31.1684C220.533 31.1684 221.766 32.5222 221.766 34.4487C221.766 36.3739 220.534 37.7498 218.833 37.7498ZM218.473 40.0312C220.236 40.0312 221.32 39.1438 221.85 38.4468L222.19 39.7358H224.29V24.929H221.745V30.3638C221.17 29.6241 220.066 28.8843 218.452 28.8843C215.436 28.8843 213.336 31.3562 213.336 34.4448C213.336 37.5373 215.521 40.0312 218.473 40.0312ZM201.945 39.7345H204.49V33.9382C204.49 32.14 205.531 31.2305 206.827 31.2305C208.017 31.2305 208.889 31.8226 208.889 33.6843V39.7345H211.434V33.3462C211.434 30.2589 210.033 28.8843 207.635 28.8843C206.063 28.8843 205.064 29.5826 204.406 30.448L204.046 29.181H201.945V39.7345ZM194.941 37.9817C193.773 37.9817 193.072 37.4311 193.072 36.6265C193.072 35.7585 193.667 35.3141 194.985 35.125L197.088 34.8076V36.0344C197.087 37.3041 196.088 37.9817 194.941 37.9817ZM194.262 40.0312C195.962 40.0312 196.79 39.377 197.216 38.7849L197.491 39.7345H199.633V32.7956C199.633 30.0464 197.576 28.8843 195.218 28.8843C192.69 28.8843 191.353 29.9829 190.781 32.0765L193.029 32.6259C193.198 31.548 193.794 30.9131 195.132 30.9131C196.493 30.9131 197.087 31.6322 197.087 32.8383V32.9653L194.814 33.2827C191.438 33.7478 190.631 35.2286 190.631 36.7729C190.633 38.7849 192.265 40.0312 194.262 40.0312ZM181.714 33.3488H176.064C176.298 32.1426 177.253 30.9766 178.974 30.9766C180.8 30.9766 181.65 32.3965 181.714 33.3488ZM183.963 35.2921V34.3204C183.963 31.1036 182.033 28.8843 178.952 28.8843C175.936 28.8843 173.602 31.2513 173.602 34.4474C173.602 37.7057 175.935 40.0312 178.973 40.0312C181.564 40.0312 183.091 38.6787 183.706 36.9867L181.564 36.3298C181.31 37.0502 180.46 37.9389 178.973 37.9389C177.295 37.9389 176.147 36.6265 176.041 35.2921H183.963ZM169.122 39.7345H171.667V24.929H169.122V39.7345ZM161.688 31.1684C163.388 31.1684 164.642 32.5442 164.642 34.4694C164.642 36.3752 163.388 37.7498 161.688 37.7498C159.989 37.7498 158.778 36.3959 158.778 34.4694C158.778 32.5429 159.99 31.1684 161.688 31.1684ZM162.05 28.8856C160.286 28.8856 159.203 29.7523 158.672 30.4701L158.333 29.181H156.233V43.9865H158.778V38.5517C159.351 39.2915 160.457 40.0312 162.071 40.0312C165.108 40.0312 167.187 37.5593 167.187 34.4707C167.187 31.3782 165.003 28.8856 162.05 28.8856ZM148.779 37.6863C147.058 37.6863 145.826 36.3311 145.826 34.4474C145.826 32.5857 147.059 31.2305 148.779 31.2305C150.478 31.2305 151.753 32.5844 151.753 34.4474C151.753 36.3311 150.478 37.6863 148.779 37.6863ZM148.779 40.0312C151.965 40.0312 154.299 37.58 154.299 34.4474C154.299 31.3368 151.966 28.8843 148.779 28.8843C145.613 28.8843 143.28 31.3355 143.28 34.4474C143.28 37.58 145.57 40.0312 148.779 40.0312ZM139.619 33.3488H133.969C134.203 32.1426 135.159 30.9766 136.879 30.9766C138.706 30.9766 139.556 32.3965 139.619 33.3488ZM141.868 35.2921V34.3204C141.868 31.1036 139.938 28.8843 136.857 28.8843C133.841 28.8843 131.507 31.2513 131.507 34.4474C131.507 37.7057 133.84 40.0312 136.878 40.0312C139.471 40.0312 140.998 38.6787 141.613 36.9867L139.471 36.3298C139.216 37.0502 138.366 37.9389 136.878 37.9389C135.2 37.9389 134.052 36.6265 133.947 35.2921H141.868ZM122.629 32.0377V27.2545H125.136C126.963 27.2545 127.833 28.2495 127.833 29.6241C127.833 30.9999 127.005 32.0377 125.157 32.0377H122.629ZM120.041 39.7345H122.629V34.3606H125.476C128.004 34.3606 130.421 32.8603 130.421 29.6228C130.421 26.301 128.047 24.9277 125.348 24.9277H120.041V39.7345ZM106.282 39.7345H108.827V33.9823C108.827 32.2242 109.824 31.2513 111.056 31.2513C111.671 31.2513 112.117 31.4417 112.33 31.6101L113.243 29.3909C112.904 29.1382 112.267 28.8843 111.418 28.8843C110.081 28.8843 109.189 29.6461 108.742 30.4053L108.382 29.1797H106.282V39.7345ZM98.8277 37.6863C97.1072 37.6863 95.8744 36.3311 95.8744 34.4474C95.8744 32.5857 97.1072 31.2305 98.8277 31.2305C100.527 31.2305 101.802 32.5844 101.802 34.4474C101.801 36.3311 100.526 37.6863 98.8277 37.6863ZM98.8277 40.0312C102.014 40.0312 104.347 37.58 104.347 34.4474C104.347 31.3368 102.014 28.8843 98.8277 28.8843C95.6624 28.8843 93.3294 31.3355 93.3294 34.4474C93.3281 37.58 95.6195 40.0312 98.8277 40.0312ZM87.1938 39.7345H89.7388V31.399H92.4359V29.181H89.7388V28.0383C89.7388 27.2973 90.0782 26.9164 90.7154 26.9164C91.2681 26.9164 91.5646 27.1496 91.7142 27.2752L92.8183 25.5211C92.5634 25.2684 91.7987 24.6116 90.1848 24.6116C88.5515 24.6116 87.1938 25.7309 87.1938 27.7416V29.181H85.3679V31.399H87.1938V39.7345Z" fill="white"></path>
  <path d="M298.702 12.195H293.052C293.286 10.9888 294.242 9.82283 295.962 9.82283C297.789 9.82283 298.639 11.2415 298.702 12.195ZM300.951 14.1383V13.1666C300.951 9.94979 299.021 7.73052 295.941 7.73052C292.924 7.73052 290.591 10.0975 290.591 13.2936C290.591 16.5519 292.924 18.8774 295.962 18.8774C298.554 18.8774 300.081 17.5249 300.696 15.8329L298.554 15.176C298.299 15.8964 297.449 16.7851 295.962 16.7851C294.283 16.7851 293.136 15.4727 293.03 14.1383H300.951ZM284.573 18.8774C286.867 18.8774 288.565 17.5884 289.287 15.6424L286.972 14.8599C286.59 15.9184 285.72 16.5325 284.573 16.5325C282.854 16.5325 281.643 15.1981 281.643 13.2936C281.643 11.3892 282.854 10.0768 284.573 10.0768C285.783 10.0768 286.653 10.753 287.036 11.8335L289.351 11.051C288.713 9.08437 286.951 7.73181 284.573 7.73181C281.367 7.73181 279.098 10.1623 279.098 13.2949C279.098 16.447 281.367 18.8774 284.573 18.8774ZM267.743 18.5808H270.288V12.7845C270.288 10.9862 271.329 10.0768 272.625 10.0768C273.815 10.0768 274.687 10.6688 274.687 12.5305V18.5808H277.232V12.1924C277.232 9.1051 275.831 7.73052 273.432 7.73052C271.859 7.73052 270.861 8.42882 270.203 9.29425L269.842 8.0272H267.742V18.5808H267.743ZM260.738 16.8279C259.569 16.8279 258.869 16.2773 258.869 15.4727C258.869 14.6047 259.463 14.1603 260.782 13.9712L262.885 13.6538V14.8807C262.885 16.1503 261.886 16.8279 260.738 16.8279ZM260.059 18.8774C261.759 18.8774 262.587 18.2232 263.011 17.6311L263.287 18.5808H265.429V11.6418C265.429 8.89263 263.371 7.73052 261.014 7.73052C258.487 7.73052 257.15 8.82914 256.576 10.9228L258.825 11.4721C258.994 10.3942 259.59 9.75935 260.928 9.75935C262.288 9.75935 262.882 10.4784 262.882 11.6845V11.8115L260.609 12.1289C257.233 12.594 256.427 14.0748 256.427 15.6191C256.429 17.6298 258.063 18.8774 260.059 18.8774ZM251.953 18.5808H254.498V8.0272H251.953V18.5808ZM253.183 6.58654C254.011 6.58654 254.712 5.91027 254.712 5.0863C254.712 4.26232 254.011 3.58605 253.183 3.58605C252.356 3.58605 251.698 4.26232 251.698 5.0863C251.698 5.91027 252.356 6.58654 253.183 6.58654ZM246.936 18.5808H249.481V3.7752H246.936V18.5808ZM241.979 18.5808H244.524V3.7752H241.979V18.5808ZM231.372 12.9347L233.537 7.11642L235.703 12.9347H231.372ZM237.805 18.5808H240.46L234.898 3.7752H232.181L226.619 18.5808H229.273L230.505 15.259H236.577L237.805 18.5808ZM217.317 8.0272V13.4219C217.317 15.1994 216.275 16.1088 214.894 16.1088C213.619 16.1088 212.769 15.5168 212.769 13.6123V8.0272H210.224V14.0347C210.224 17.122 211.773 18.4745 214.088 18.4745C215.701 18.4745 216.574 17.8825 217.295 17.0157L217.317 17.0792V18.1999C217.317 19.9787 216.361 20.9309 214.809 20.9309C213.471 20.9309 212.77 20.2961 212.558 19.2583L210.182 19.7455C210.691 21.6279 212.134 23.1074 214.809 23.1074C218.016 23.1074 219.863 21.1434 219.863 18.1791V8.0272H217.317ZM202.456 16.2138C200.798 16.2138 199.587 15.0076 199.587 13.1239C199.587 11.2181 200.777 10.0133 202.435 10.0133C204.071 10.0133 205.282 11.2194 205.282 13.1239C205.282 15.0076 204.092 16.2138 202.456 16.2138ZM202.413 23.1074C205.854 23.1074 207.827 21.1434 207.827 18.1791V8.0272H205.749L205.282 9.29425C204.836 8.57651 203.774 7.73052 202.074 7.73052C199.165 7.73052 197.042 10.0768 197.042 13.1239C197.042 16.1918 199.122 18.4952 202.095 18.4952C203.71 18.4952 204.814 17.7127 205.282 16.9315V18.2206C205.282 19.9994 204.198 20.9516 202.413 20.9516C200.927 20.9516 200.141 20.2313 199.887 19.1521L197.509 19.6807C198.04 21.6279 199.567 23.1074 202.413 23.1074ZM189.714 18.5808H192.259V12.8285C192.259 11.0704 193.257 10.0975 194.488 10.0975C195.103 10.0975 195.551 10.2879 195.763 10.4564L196.676 8.23708C196.336 7.98444 195.699 7.73052 194.85 7.73052C193.513 7.73052 192.621 8.4923 192.175 9.25149L191.815 8.0259H189.714V18.5808ZM185.5 12.195H179.849C180.083 10.9888 181.038 9.82283 182.759 9.82283C184.587 9.82283 185.436 11.2415 185.5 12.195ZM187.748 14.1383V13.1666C187.748 9.94979 185.818 7.73052 182.737 7.73052C179.72 7.73052 177.387 10.0975 177.387 13.2936C177.387 16.5519 179.72 18.8774 182.758 18.8774C185.35 18.8774 186.877 17.5249 187.492 15.8329L185.35 15.176C185.095 15.8964 184.246 16.7851 182.758 16.7851C181.079 16.7851 179.932 15.4727 179.827 14.1383H187.748ZM166.034 18.5808H168.579V12.7845C168.579 10.9862 169.62 10.0768 170.916 10.0768C172.106 10.0768 172.977 10.6688 172.977 12.5305V18.5808H175.522V12.1924C175.522 9.1051 174.122 7.73052 171.724 7.73052C170.151 7.73052 169.153 8.42882 168.495 9.29425L168.134 8.0272H166.034V18.5808ZM154.525 18.5808H163.865V16.2565H157.113V12.2559H162.973V9.99514H157.113V6.09942H163.865V3.7752H154.525V18.5808ZM144.058 18.5808H146.603V3.7752H144.058V18.5808ZM137.048 16.8279C135.879 16.8279 135.178 16.2773 135.178 15.4727C135.178 14.6047 135.774 14.1603 137.091 13.9712L139.195 13.6538V14.8807C139.195 16.1503 138.196 16.8279 137.048 16.8279ZM136.368 18.8774C138.068 18.8774 138.897 18.2232 139.321 17.6311L139.597 18.5808H141.739V11.6418C141.739 8.89263 139.682 7.73052 137.324 7.73052C134.797 7.73052 133.46 8.82914 132.887 10.9228L135.135 11.4721C135.306 10.3942 135.9 9.75935 137.239 9.75935C138.598 9.75935 139.194 10.4784 139.194 11.6845V11.8115L136.921 12.1289C133.545 12.594 132.738 14.0748 132.738 15.6191C132.74 17.6298 134.373 18.8774 136.368 18.8774ZM125.888 16.5947C124.188 16.5947 122.977 15.2188 122.977 13.2936C122.977 11.3684 124.188 10.0133 125.888 10.0133C127.587 10.0133 128.841 11.3892 128.841 13.2936C128.841 15.2201 127.587 16.5947 125.888 16.5947ZM126.249 18.8774C129.201 18.8774 131.386 16.3835 131.386 13.2936C131.386 10.2037 129.308 7.73052 126.27 7.73052C124.655 7.73052 123.551 8.47027 122.977 9.21003V3.7752H120.432V18.5808H122.532L122.872 17.2917C123.402 17.9887 124.486 18.8774 126.249 18.8774ZM112.978 16.5312C111.257 16.5312 110.026 15.176 110.026 13.2923C110.026 11.4306 111.257 10.0755 112.978 10.0755C114.678 10.0755 115.952 11.4293 115.952 13.2923C115.952 15.176 114.678 16.5312 112.978 16.5312ZM112.978 18.8774C116.164 18.8774 118.498 16.4263 118.498 13.2936C118.498 10.183 116.165 7.73052 112.978 7.73052C109.813 7.73052 107.48 10.1817 107.48 13.2936C107.48 16.425 109.77 18.8774 112.978 18.8774ZM103.031 18.5808H105.576V3.7752H103.031V18.5808ZM93.4358 18.8774C96.2604 18.8774 97.7482 17.5456 98.215 16.9121L98.5974 18.5808H100.358V10.4175H94.5633V12.6147H97.7924C97.6649 14.3728 96.5387 16.4884 93.5646 16.4884C90.6125 16.4884 88.5942 14.2031 88.5942 11.178C88.5942 8.27983 90.5917 5.86622 93.5217 5.86622C95.6882 5.86622 96.8144 6.96614 97.3879 8.42752L99.8289 7.58153C98.9589 5.29617 96.9848 3.47852 93.3955 3.47852C89.0624 3.47852 86.0076 6.84047 86.0076 11.178C86.005 15.6424 89.0181 18.8774 93.4358 18.8774Z" fill="white"></path>
  <path d="M86.0076 51.4877C86.0076 48.3771 88.3159 46.0166 91.3629 46.0166C93.4605 46.0166 95.0445 47.1139 95.7376 48.8875L94.6517 49.2788C94.1238 47.956 93.0522 47.0841 91.3928 47.0841C88.9193 47.0841 87.1832 49.0534 87.1832 51.4877C87.1832 54.0425 88.8881 55.8913 91.3616 55.8913C93.7752 55.8913 94.9066 54.0723 94.9365 52.1938H92.3109V51.1716H96.0823V56.7476H95.207L95.0263 55.1852C94.6648 55.7708 93.4878 56.9588 91.3603 56.9588C88.2548 56.9588 86.0076 54.7344 86.0076 51.4877Z" fill="white"></path>
  <path d="M97.6987 46.2275H104.096V47.2795H98.8756V50.9161H103.477V51.9526H98.8756V55.6954H104.096V56.7474H97.6987V46.2275Z" fill="white"></path>
  <path d="M111.942 53.8014H107.476L106.374 56.7475H105.167L109.105 46.2263H110.312L114.264 56.7475H113.042L111.942 53.8014ZM111.549 52.7494L109.709 47.8043L107.869 52.7494H111.549Z" fill="white"></path>
  <path d="M115.262 46.2275H118.626C120.784 46.2275 122.171 47.3702 122.171 49.399C122.171 51.4136 120.722 52.5848 118.64 52.5848H116.437V56.7474H115.26V46.2275H115.262ZM118.536 51.5328C119.985 51.5328 120.996 50.9161 120.996 49.399C120.996 47.8807 119.985 47.2795 118.536 47.2795H116.439V51.5328H118.536Z" fill="white"></path>
  <path d="M123.344 46.2275H126.708C128.866 46.2275 130.253 47.3702 130.253 49.399C130.253 51.4136 128.805 52.5848 126.723 52.5848H124.52V56.7474H123.343V46.2275H123.344ZM126.617 51.5328C128.066 51.5328 129.077 50.9161 129.077 49.399C129.077 47.8807 128.066 47.2795 126.617 47.2795H124.52V51.5328H126.617Z" fill="white"></path>
</svg>
