<svg width="52" height="44" viewBox="0 0 52 44" fill="none" xmlns="http://www.w3.org/2000/svg">
<g id="Group">
<path id="Vector" d="M48.3438 0.875H3.65625C2.9023 0.875833 2.17946 1.17571 1.64634 1.70884C1.11321 2.24196 0.813333 2.9648 0.8125 3.71875V33.7812C0.813333 34.5352 1.11321 35.258 1.64634 35.7912C2.17946 36.3243 2.9023 36.6242 3.65625 36.625H20.1338L19.6463 39.0625H16.25C16.0345 39.0625 15.8278 39.1481 15.6755 39.3005C15.5231 39.4528 15.4375 39.6595 15.4375 39.875V42.3125C15.4375 42.528 15.5231 42.7347 15.6755 42.887C15.8278 43.0394 16.0345 43.125 16.25 43.125H35.75C35.9655 43.125 36.1722 43.0394 36.3245 42.887C36.4769 42.7347 36.5625 42.528 36.5625 42.3125V39.875C36.5625 39.6595 36.4769 39.4528 36.3245 39.3005C36.1722 39.1481 35.9655 39.0625 35.75 39.0625H32.3537L31.8663 36.625H48.3438C49.0977 36.6242 49.8205 36.3243 50.3537 35.7912C50.8868 35.258 51.1867 34.5352 51.1875 33.7812V3.71875C51.1867 2.9648 50.8868 2.24196 50.3537 1.70884C49.8205 1.17571 49.0977 0.875833 48.3438 0.875ZM34.9375 40.6875V41.5H17.0625V40.6875H34.9375ZM21.3037 39.0625L21.7912 36.625H30.2088L30.6962 39.0625H21.3037ZM49.5625 33.7812C49.5622 34.1044 49.4337 34.4142 49.2052 34.6427C48.9767 34.8712 48.6669 34.9997 48.3438 35H3.65625C3.3331 34.9997 3.02326 34.8712 2.79476 34.6427C2.56626 34.4142 2.43777 34.1044 2.4375 33.7812V31.75H49.5625V33.7812ZM49.5625 30.125H2.4375V3.71875C2.43777 3.3956 2.56626 3.08576 2.79476 2.85726C3.02326 2.62876 3.3331 2.50027 3.65625 2.5H48.3438C48.6669 2.50027 48.9767 2.62876 49.2052 2.85726C49.4337 3.08576 49.5622 3.3956 49.5625 3.71875V30.125Z" fill="black"/>
<path id="Vector_2" d="M26.8125 32.5625H25.1875C24.972 32.5625 24.7653 32.6481 24.613 32.8005C24.4606 32.9528 24.375 33.1595 24.375 33.375C24.375 33.5905 24.4606 33.7972 24.613 33.9495C24.7653 34.1019 24.972 34.1875 25.1875 34.1875H26.8125C27.028 34.1875 27.2347 34.1019 27.387 33.9495C27.5394 33.7972 27.625 33.5905 27.625 33.375C27.625 33.1595 27.5394 32.9528 27.387 32.8005C27.2347 32.6481 27.028 32.5625 26.8125 32.5625Z" fill="black"/>
</g>
</svg>
