<svg width="66" height="17" viewBox="0 0 66 17" fill="none" xmlns="http://www.w3.org/2000/svg">
<g id="Vector">
<path d="M64.8768 15.4052C64.9171 15.4056 64.9571 15.3977 64.9942 15.382C65.0314 15.3663 65.0649 15.3432 65.0927 15.314C65.1205 15.2848 65.1421 15.2502 65.156 15.2124C65.1699 15.1745 65.1758 15.1342 65.1735 15.094C65.1735 14.8733 65.0404 14.7678 64.7672 14.7678H64.3258V15.9233H64.4918V15.4196H64.6958L64.7005 15.4258L65.0171 15.9233H65.1946L64.854 15.4084L64.8768 15.4052ZM64.6848 15.2894H64.4923V14.8988H64.7363C64.8623 14.8988 65.006 14.9194 65.006 15.0844C65.006 15.2742 64.8616 15.2894 64.6848 15.2894ZM0.201172 2.77088H2.65167V11.6969H7.18826V13.9584H0.201172V2.77088ZM8.27165 6.37294H10.6258V13.9542H8.27165V6.37294ZM9.44871 2.60389C9.7188 2.60394 9.9828 2.68407 10.2073 2.83416C10.4319 2.98425 10.6069 3.19755 10.7102 3.44709C10.8135 3.69663 10.8406 3.9712 10.7878 4.2361C10.7351 4.50099 10.605 4.7443 10.414 4.93526C10.223 5.12622 9.9797 5.25626 9.7148 5.30894C9.44989 5.36161 9.17532 5.33455 8.9258 5.23118C8.67628 5.12782 8.46301 4.95278 8.31296 4.72821C8.16291 4.50363 8.08283 4.23961 8.08283 3.96952C8.08283 3.79017 8.11816 3.61256 8.1868 3.44686C8.25545 3.28116 8.35606 3.1306 8.4829 3.00379C8.60974 2.87697 8.76031 2.77638 8.92603 2.70777C9.09174 2.63915 9.26935 2.60385 9.44871 2.60389ZM20.4734 2.76917H22.8275V9.45512L25.4955 6.3695H28.3817L25.292 9.87936L28.3168 13.9574H25.3579L22.8589 10.2099H22.828V13.9569H20.4739L20.4734 2.76917ZM11.9311 6.37367H14.1918V7.40973H14.2239C14.4497 7.02287 14.7763 6.7046 15.1689 6.48891C15.5615 6.27322 16.0053 6.16821 16.453 6.1851C18.8402 6.1851 19.2796 7.75574 19.2796 9.79622V13.9537H16.9255V10.2678C16.9255 9.38793 16.9093 8.25697 15.6994 8.25697C14.4757 8.25697 14.2869 9.21505 14.2869 10.2038V13.9527H11.9328L11.9311 6.37367Z" fill="white"/>
<path d="M33.3394 9.28182C33.3439 9.09083 33.3096 8.90092 33.2385 8.72358C33.1675 8.54624 33.0611 8.38518 32.926 8.25013C32.7909 8.11509 32.6297 8.00889 32.4524 7.93796C32.275 7.86702 32.085 7.83284 31.894 7.83747C31.4827 7.81188 31.0778 7.94895 30.7666 8.21914C30.4554 8.48932 30.2629 8.87098 30.2305 9.28182H33.3394ZM35.3335 12.6414C34.9423 13.1157 34.4505 13.4972 33.8937 13.7581C33.337 14.0189 32.7291 14.1527 32.1143 14.1497C29.7601 14.1497 27.8754 12.5783 27.8754 10.145C27.8754 7.71167 29.7599 6.14103 32.1143 6.14103C34.3146 6.14103 35.6945 7.71045 35.6945 10.145V10.8831H30.2305C30.2985 11.3017 30.5155 11.6816 30.8415 11.9529C31.1676 12.2241 31.5806 12.3684 32.0046 12.3591C32.3397 12.357 32.6689 12.2712 32.9624 12.1094C33.2558 11.9476 33.5041 11.7149 33.6847 11.4327L35.3335 12.6414ZM40.6014 8.20555C39.4243 8.20555 38.7181 8.99148 38.7181 10.1367C38.7181 11.2818 39.424 12.0685 40.6014 12.0685C41.7787 12.0685 42.4864 11.2838 42.4864 10.1367C42.4864 8.98952 41.7799 8.20555 40.6014 8.20555ZM44.6536 13.9528H42.4864V12.9474H42.4543C42.1824 13.3131 41.8297 13.6111 41.4237 13.8181C41.0178 14.0252 40.5695 14.1357 40.1139 14.1411C37.8519 14.1411 36.362 12.5087 36.362 10.2002C36.362 8.07999 37.6805 6.13318 39.848 6.13318C40.8223 6.13318 41.7323 6.39974 42.2662 7.13859H42.2971V2.7685H44.6534L44.6536 13.9528ZM60.5462 13.9572H58.1921V10.2706C58.1921 9.39144 58.1764 8.25974 56.9677 8.25974C55.7416 8.25974 55.554 9.21758 55.554 10.2066V13.957H53.1998V6.37571H55.4598V7.41177H55.4914C55.7176 7.02506 56.0444 6.70694 56.4371 6.49129C56.8298 6.27563 57.2736 6.17051 57.7212 6.18713C60.1072 6.18713 60.5472 7.75655 60.5472 9.79826L60.5462 13.9572ZM50.5436 5.3394C50.2734 5.33945 50.0093 5.25938 49.7846 5.1093C49.5599 4.95923 49.3848 4.7459 49.2813 4.4963C49.1779 4.24669 49.1508 3.97201 49.2034 3.707C49.2561 3.44198 49.3862 3.19854 49.5772 3.00745C49.7682 2.81636 50.0116 2.68621 50.2766 2.63345C50.5416 2.58069 50.8163 2.60769 51.0659 2.71104C51.3156 2.8144 51.529 2.98946 51.6791 3.21409C51.8293 3.43872 51.9094 3.70284 51.9095 3.97303C51.9095 4.15243 51.8742 4.33008 51.8056 4.49584C51.737 4.6616 51.6364 4.81222 51.5095 4.9391C51.3827 5.06598 51.2321 5.16663 51.0664 5.23532C50.9006 5.304 50.723 5.33937 50.5436 5.3394ZM51.7207 13.9572H49.3641V6.37571H51.7207V13.9572ZM61.7198 0.421H48.1811C47.8739 0.417533 47.5778 0.536204 47.3579 0.750937C47.1381 0.96567 47.0125 1.2589 47.0087 1.56618V15.161C47.0124 15.4684 47.1379 15.7619 47.3577 15.9768C47.5775 16.1918 47.8737 16.3107 48.1811 16.3074H61.7198C62.0279 16.3113 62.3248 16.1927 62.5455 15.9778C62.7662 15.7628 62.8926 15.469 62.8969 15.161V1.5652C62.8925 1.25731 62.766 0.963747 62.5453 0.749019C62.3246 0.534291 62.0277 0.41694 61.7198 0.421ZM64.7049 14.2532C64.4185 14.2559 64.1448 14.372 63.9437 14.576C63.7427 14.78 63.6306 15.0553 63.6319 15.3417C63.6333 15.6282 63.7481 15.9024 63.9511 16.1044C64.1541 16.3065 64.4289 16.4199 64.7153 16.4199C65.0017 16.4199 65.2765 16.3065 65.4795 16.1044C65.6826 15.9024 65.7973 15.6282 65.7987 15.3417C65.8001 15.0553 65.688 14.78 65.4869 14.576C65.2858 14.372 65.0121 14.2559 64.7257 14.2532H64.7049ZM64.7049 16.2959C64.517 16.299 64.3324 16.2464 64.1745 16.1446C64.0166 16.0428 63.8924 15.8965 63.8176 15.7241C63.7428 15.5518 63.7208 15.3611 63.7544 15.1762C63.788 14.9914 63.8756 14.8206 64.0062 14.6856C64.1369 14.5505 64.3046 14.4572 64.4883 14.4175C64.6719 14.3778 64.8632 14.3934 65.038 14.4624C65.2127 14.5314 65.3631 14.6507 65.4701 14.8052C65.577 14.9596 65.6358 15.1423 65.6389 15.3302V15.3461C65.6442 15.5926 65.5514 15.831 65.3808 16.009C65.2103 16.1871 64.9761 16.2901 64.7297 16.2954L64.7049 16.2959Z" fill="white"/>
</g>
</svg>
