<svg width="32" height="32" viewBox="0 0 32 32" fill="none" xmlns="http://www.w3.org/2000/svg">
<path id="Vector" d="M27.2655 27.2659H22.5241V19.8399C22.5241 18.0691 22.4925 15.7896 20.0581 15.7896C17.5886 15.7896 17.2108 17.7189 17.2108 19.711V27.2654H12.4694V11.9946H17.0211V14.0815H17.0848C17.5404 13.3026 18.1986 12.6618 18.9895 12.2274C19.7803 11.793 20.6742 11.5813 21.5758 11.6148C26.3814 11.6148 27.2675 14.776 27.2675 18.8886L27.2655 27.2659ZM7.11952 9.90722C6.57533 9.90732 6.04332 9.74603 5.59079 9.44374C5.13825 9.14146 4.78551 8.71175 4.57716 8.20897C4.36882 7.70619 4.31423 7.15292 4.4203 6.61911C4.52637 6.0853 4.78833 5.59494 5.17306 5.21003C5.5578 4.82512 6.04802 4.56295 6.58174 4.45668C7.11546 4.35041 7.66871 4.4048 8.17151 4.61298C8.67432 4.82117 9.10411 5.17379 9.40653 5.62626C9.70895 6.07873 9.87041 6.61072 9.87051 7.15497C9.87058 7.51634 9.79947 7.87418 9.66125 8.20806C9.52304 8.54194 9.32042 8.84533 9.06497 9.1009C8.80951 9.35647 8.50622 9.55922 8.17242 9.69757C7.83862 9.83592 7.48085 9.90716 7.11952 9.90722ZM9.49021 27.2659H4.74387V11.9946H9.49021V27.2659ZM29.6293 0.000205406H2.36132C1.74241 -0.00677962 1.14604 0.232257 0.703274 0.664789C0.260504 1.09732 0.00755341 1.68796 0 2.30692V29.6906C0.00729489 30.3099 0.260096 30.9009 0.702851 31.3339C1.14561 31.7669 1.74211 32.0064 2.36132 31.9998H29.6293C30.2497 32.0076 30.8479 31.7688 31.2924 31.3358C31.7369 30.9028 31.9914 30.3111 32 29.6906V2.30494C31.9912 1.68476 31.7365 1.09345 31.292 0.660926C30.8475 0.228404 30.2494 -0.0079741 29.6293 0.000205406Z" fill="#132F42"/>
</svg>
