<svg width="34" height="40" viewBox="0 0 34 40" fill="none" xmlns="http://www.w3.org/2000/svg">
<g id="Group">
<g id="Group_2">
<path id="Vector" d="M8.52024 11.9453H6.2207V20.3132L8.52024 19.5636V11.9453Z" fill="white"/>
<path id="Vector_2" d="M6.2207 33.8948H8.52024V24.0605L6.2207 24.8101V33.8948Z" fill="white"/>
<path id="Vector_3" d="M10.793 23.3218V36.8831H13.0925V24.2566L12.1369 22.8828L10.793 23.3218Z" fill="white"/>
<path id="Vector_4" d="M13.0925 5.97266H10.793V18.8232L13.0925 18.0766V5.97266Z" fill="white"/>
<path id="Vector_5" d="M17.6618 0H15.3652V19.5968L17.6618 22.9058V0Z" fill="white"/>
<path id="Vector_6" d="M15.3652 27.5234V39.8693H17.6618V28.945L16.6016 29.3063L15.3652 27.5234Z" fill="white"/>
<path id="Vector_7" d="M19.9341 36.8822H22.2336V27.4004L19.9341 28.1769V36.8822Z" fill="white"/>
<path id="Vector_8" d="M22.2336 5.97266H19.9341V23.6881L22.2336 22.9116V5.97266Z" fill="white"/>
<path id="Vector_9" d="M24.5063 33.8949H26.8059V25.8555L24.5063 26.6319V33.8949Z" fill="white"/>
<path id="Vector_10" d="M26.8059 11.9453H24.5063V22.1439L26.8059 21.3674V11.9453Z" fill="white"/>
<path id="Vector_11" d="M33.194 21.1027C32.9103 20.7772 32.4951 20.5681 32.0323 20.5681C31.3723 20.5681 30.8108 20.9832 30.5868 21.5656L26.806 22.8438L24.5065 23.6202L22.2338 24.3878L19.9343 25.1642L18.7606 25.5614C18.5396 25.439 18.2888 25.3643 18.017 25.3643C17.9424 25.3643 17.8707 25.3763 17.796 25.3852L17.6587 25.1881L15.3591 21.8822L14.9798 21.3386C15.0724 21.1415 15.1262 20.9235 15.1262 20.6936C15.1262 19.8394 14.4303 19.1406 13.5732 19.1406C13.403 19.1406 13.2388 19.1765 13.0835 19.2272C12.7639 19.3347 12.4862 19.5378 12.298 19.8126L10.7869 20.3053L8.51426 21.046L6.21472 21.7955L2.47275 23.014C2.35031 22.9214 2.20994 22.8497 2.06361 22.799C1.90234 22.7422 1.73212 22.7064 1.55293 22.7064C0.69882 22.7064 0 23.4022 0 24.2593C0 24.8208 0.304614 25.3106 0.752576 25.5823C0.985516 25.7227 1.25728 25.8093 1.54995 25.8093C2.2428 25.8093 2.82515 25.3494 3.02225 24.7192L6.21771 23.677L8.51725 22.9274L10.7899 22.1868L12.3817 21.6671C12.5638 21.8911 12.8087 22.0613 13.0894 22.1539C13.194 22.1898 13.3045 22.2136 13.4209 22.2256L15.3621 25.0179L16.494 26.6455C16.479 26.7321 16.4671 26.8217 16.4671 26.9113C16.4671 27.6429 16.9778 28.2552 17.6616 28.4164C17.7751 28.4433 17.8946 28.4612 18.017 28.4612C18.7786 28.4612 19.4117 27.9087 19.5401 27.183L19.9313 27.0516L22.2308 26.2752L24.5035 25.5077L26.803 24.7312L31.0378 23.3007C31.2916 23.5127 31.6112 23.6471 31.9636 23.6621C31.9845 23.6621 32.0054 23.668 32.0293 23.668C32.8834 23.668 33.5822 22.9722 33.5822 22.1151C33.5822 21.7269 33.4329 21.3745 33.194 21.1027ZM31.5753 23.1215C31.3245 23.005 31.1214 22.802 31.0139 22.5451C30.9601 22.4137 30.9273 22.2704 30.9273 22.1181C30.9273 22.0285 30.9422 21.9389 30.9631 21.8553C31.0109 21.6582 31.1124 21.479 31.2498 21.3386C31.4499 21.1385 31.7247 21.0131 32.0323 21.0131C32.08 21.0131 32.1248 21.0221 32.1726 21.028C32.2294 21.034 32.2831 21.046 32.3339 21.0609C32.4772 21.1027 32.6056 21.1714 32.7191 21.261C32.97 21.4641 33.1342 21.7687 33.1342 22.1181C33.1342 22.7273 32.6385 23.2231 32.0293 23.2231C31.9546 23.2231 31.8799 23.2141 31.8083 23.1992C31.7276 23.1842 31.65 23.1544 31.5753 23.1215ZM17.6616 27.9535C17.6019 27.9326 17.5482 27.9087 17.4944 27.8789C17.3511 27.8012 17.2286 27.6937 17.133 27.5653C17.1181 27.5444 17.1032 27.5235 17.0882 27.4996C16.9807 27.3294 16.915 27.1293 16.915 26.9113C16.915 26.8247 16.927 26.741 16.9449 26.6604C17.0225 26.3229 17.2555 26.0452 17.5661 25.9048C17.5959 25.8899 17.6288 25.881 17.6616 25.869C17.7751 25.8302 17.8916 25.8063 18.017 25.8063C18.2529 25.8063 18.4739 25.8839 18.6531 26.0094C18.8472 26.1467 18.9906 26.3468 19.0653 26.5768C19.0981 26.6813 19.122 26.7918 19.122 26.9083C19.122 27.0695 19.0862 27.2189 19.0234 27.3562C18.8502 27.7415 18.465 28.0133 18.017 28.0133C17.8946 28.0162 17.7751 27.9924 17.6616 27.9535ZM13.0088 21.6313C12.9551 21.5984 12.9043 21.5596 12.8565 21.5178C12.6713 21.3565 12.5429 21.1355 12.4981 20.8847C12.4862 20.822 12.4802 20.7593 12.4802 20.6936C12.4802 20.4785 12.5459 20.2784 12.6534 20.1082C12.7609 19.938 12.9132 19.8006 13.0954 19.711C13.2447 19.6364 13.409 19.5916 13.5852 19.5916C13.6539 19.5916 13.7226 19.6005 13.7883 19.6125C14.2989 19.708 14.6872 20.156 14.6872 20.6965C14.6872 20.7593 14.6782 20.822 14.6693 20.8817C14.6364 21.0758 14.5528 21.249 14.4303 21.3954C14.2273 21.6403 13.9256 21.8015 13.5822 21.8015C13.5762 21.8015 13.5703 21.7985 13.5643 21.7985C13.3941 21.7955 13.2358 21.7537 13.0954 21.6821C13.0626 21.6612 13.0357 21.6462 13.0088 21.6313ZM2.65492 24.2563C2.65492 24.5012 2.5713 24.7282 2.43393 24.9104C2.23384 25.1821 1.91429 25.3583 1.54995 25.3583C1.12588 25.3583 0.761535 25.1164 0.576377 24.764C0.495744 24.6117 0.444975 24.4385 0.444975 24.2563C0.444975 23.6471 0.94072 23.1514 1.54995 23.1514C1.66343 23.1514 1.77393 23.1753 1.87547 23.2051C2.01881 23.2499 2.15022 23.3246 2.2637 23.4202C2.28162 23.4351 2.30252 23.45 2.32044 23.4679C2.48768 23.6322 2.60116 23.8502 2.637 24.0921C2.64596 24.1488 2.65492 24.2026 2.65492 24.2563Z" fill="white"/>
</g>
</g>
</svg>
