<?xml version="1.0" encoding="UTF-8"?>
<svg id="Layer_2" data-name="Layer 2" xmlns="http://www.w3.org/2000/svg" xmlns:xlink="http://www.w3.org/1999/xlink" viewBox="0 0 493.45 217.08">
  <defs>
    <style>
      .cls-1 {
        fill: url(#linear-gradient);
      }

      .cls-1, .cls-2, .cls-3, .cls-4, .cls-5, .cls-6, .cls-7, .cls-8, .cls-9, .cls-10, .cls-11, .cls-12 {
        stroke-width: 0px;
      }

      .cls-2 {
        fill: url(#linear-gradient-4);
      }

      .cls-3 {
        fill: url(#linear-gradient-2);
      }

      .cls-4 {
        fill: url(#linear-gradient-3);
      }

      .cls-5 {
        fill: url(#linear-gradient-8);
      }

      .cls-6 {
        fill: url(#linear-gradient-7);
      }

      .cls-7 {
        fill: url(#linear-gradient-5);
      }

      .cls-8 {
        fill: url(#linear-gradient-6);
      }

      .cls-10 {
        fill: #5EB01E;
      }

      .cls-11 {
        fill: #5EB01E;
      }

      .cls-12 {
        fill: #00a83a;
      }
    </style>
    <linearGradient id="linear-gradient" x1="115.72" y1="206.18" x2="517.59" y2="218.78" gradientUnits="userSpaceOnUse">
      <stop offset="0" stop-color="#199b45"/>
      <stop offset="1" stop-color="#e0e225"/>
    </linearGradient>
    <linearGradient id="linear-gradient-2" x1="115.77" y1="204.58" x2="517.64" y2="217.18" xlink:href="#linear-gradient"/>
    <linearGradient id="linear-gradient-3" x1="115.83" y1="202.74" x2="517.69" y2="215.34" xlink:href="#linear-gradient"/>
    <linearGradient id="linear-gradient-4" x1="115.87" y1="201.53" x2="517.73" y2="214.13" xlink:href="#linear-gradient"/>
    <linearGradient id="linear-gradient-5" x1="115.91" y1="200.21" x2="517.77" y2="212.81" xlink:href="#linear-gradient"/>
    <linearGradient id="linear-gradient-6" x1="115.96" y1="198.66" x2="517.82" y2="211.26" xlink:href="#linear-gradient"/>
    <linearGradient id="linear-gradient-7" x1="116.01" y1="197.16" x2="517.87" y2="209.76" xlink:href="#linear-gradient"/>
    <linearGradient id="linear-gradient-8" x1="116.06" y1="195.43" x2="517.92" y2="208.03" xlink:href="#linear-gradient"/>
  </defs>
  <g id="Layer_1-2" data-name="Layer 1">
    <g>
      <polygon class="cls-10" points="124.76 23.87 124.76 105.39 86.62 83.52 86.62 .86 124.76 23.87"/>
      <polygon class="cls-12" points="81.63 57.85 81.63 139.37 43.49 117.5 43.49 34.84 81.63 57.85"/>
      <polygon class="cls-11" points="38.14 91.6 38.14 173.11 0 151.24 0 68.58 38.14 91.6"/>
      <path class="cls-1" d="m133.97,216.85l8.98-19.83h2.8l9.01,19.83h-2.97l-8.02-18.24h1.13l-8.02,18.24h-2.92Zm3.82-4.96l.77-2.27h11.16l.82,2.27h-12.75Z"/>
      <path class="cls-3" d="m186.61,216.85v-19.83h8.36c2.11,0,3.98.42,5.59,1.25,1.61.83,2.87,1.99,3.77,3.48.9,1.49,1.35,3.22,1.35,5.18s-.45,3.69-1.35,5.18c-.9,1.49-2.15,2.65-3.77,3.48-1.61.83-3.48,1.25-5.59,1.25h-8.36Zm2.83-2.46h5.35c1.64,0,3.06-.31,4.26-.94,1.2-.62,2.13-1.5,2.79-2.62.66-1.12.99-2.42.99-3.89s-.33-2.79-.99-3.91c-.66-1.11-1.59-1.98-2.79-2.61-1.2-.62-2.62-.93-4.26-.93h-5.35v14.9Z"/>
      <path class="cls-4" d="m244,216.85l-8.73-19.83h3.06l8.02,18.3h-1.76l8.07-18.3h2.83l-8.7,19.83h-2.8Z"/>
      <path class="cls-2" d="m286.92,216.85v-19.83h2.83v19.83h-2.83Z"/>
      <path class="cls-7" d="m330.38,217.08c-1.51,0-2.96-.23-4.33-.69-1.38-.46-2.46-1.06-3.26-1.8l1.05-2.21c.75.66,1.72,1.21,2.89,1.64s2.39.65,3.65.65c1.15,0,2.09-.13,2.8-.4.72-.26,1.25-.63,1.59-1.09.34-.46.51-.99.51-1.57,0-.68-.22-1.23-.67-1.64-.44-.42-1.02-.75-1.73-1.01-.71-.26-1.49-.48-2.34-.67-.85-.19-1.7-.41-2.56-.67-.86-.25-1.64-.58-2.35-.98-.71-.4-1.28-.93-1.71-1.6-.43-.67-.65-1.53-.65-2.59s.27-1.96.81-2.82,1.37-1.55,2.49-2.07c1.12-.52,2.55-.78,4.29-.78,1.15,0,2.29.15,3.43.45,1.13.3,2.12.74,2.95,1.3l-.93,2.27c-.85-.57-1.75-.98-2.69-1.23-.94-.26-1.86-.38-2.75-.38-1.11,0-2.03.14-2.75.42-.72.28-1.24.66-1.57,1.13-.33.47-.5,1-.5,1.59,0,.7.22,1.26.67,1.67.44.42,1.02.75,1.73.99s1.49.47,2.34.67,1.7.42,2.56.67c.86.25,1.64.57,2.35.96.71.4,1.28.93,1.71,1.59.43.66.65,1.51.65,2.55s-.27,1.93-.82,2.79c-.55.86-1.39,1.55-2.54,2.07-1.14.52-2.58.78-4.32.78Z"/>
      <path class="cls-8" d="m380.04,217.08c-1.51,0-2.91-.26-4.21-.76-1.29-.51-2.41-1.22-3.36-2.14-.94-.92-1.68-1.99-2.21-3.22-.53-1.23-.79-2.57-.79-4.02s.26-2.79.79-4.02c.53-1.23,1.27-2.3,2.21-3.22.94-.92,2.06-1.63,3.34-2.14,1.28-.51,2.69-.77,4.22-.77s2.9.25,4.18.75c1.28.5,2.39,1.21,3.34,2.12.95.92,1.69,1.99,2.21,3.22.52,1.23.78,2.58.78,4.05s-.26,2.82-.78,4.05c-.52,1.23-1.26,2.3-2.21,3.22-.95.92-2.07,1.62-3.34,2.12-1.27.5-2.67.75-4.18.75Zm0-2.52c1.1,0,2.11-.19,3.05-.57.94-.38,1.75-.91,2.44-1.6.69-.69,1.23-1.5,1.61-2.42.39-.92.58-1.94.58-3.03s-.19-2.11-.58-3.03c-.39-.92-.93-1.73-1.61-2.42-.69-.69-1.5-1.22-2.44-1.6-.93-.38-1.95-.57-3.05-.57s-2.14.19-3.07.57c-.94.38-1.75.91-2.45,1.6-.7.69-1.24,1.5-1.63,2.42-.39.93-.58,1.94-.58,3.03s.19,2.11.58,3.03c.39.93.93,1.73,1.63,2.42.7.69,1.52,1.22,2.45,1.6.93.38,1.96.57,3.07.57Z"/>
      <path class="cls-6" d="m423.78,216.85v-19.83h7.73c1.74,0,3.22.27,4.45.82,1.23.55,2.17,1.34,2.83,2.38.66,1.04.99,2.28.99,3.71s-.33,2.67-.99,3.7c-.66,1.03-1.61,1.82-2.83,2.37-1.23.55-2.71.82-4.45.82h-6.18l1.27-1.3v7.34h-2.83Zm2.83-7.05l-1.27-1.39h6.09c1.81,0,3.19-.39,4.12-1.18.93-.78,1.4-1.88,1.4-3.3s-.47-2.51-1.4-3.29c-.94-.77-2.31-1.16-4.12-1.16h-6.09l1.27-1.42v11.73Zm10.43,7.05l-5.04-7.2h3.03l5.1,7.2h-3.09Z"/>
      <path class="cls-5" d="m477.77,216.85v-7.59l.65,1.76-8.53-13.99h3.03l7.17,11.81h-1.64l7.2-11.81h2.8l-8.5,13.99.62-1.76v7.59h-2.8Z"/>
      <path class="cls-9" d="m250.34,1.12h24.15c3.58,0,4.4,1.64,2.46,4.92l-51.65,77.14,56.34,84.07c2.24,3.28,1.42,4.92-2.46,4.92h-24.15c-2.54,0-4.55-1.19-6.04-3.58l-40.69-62.16-40.47,62.16c-1.49,2.39-3.5,3.58-6.04,3.58h-24.15c-3.88,0-4.7-1.64-2.46-4.92l56.34-84.07L139.89,6.03c-1.94-3.28-1.12-4.92,2.46-4.92h24.15c2.53,0,4.54,1.19,6.04,3.58l35.77,55.22L244.31,4.69c1.49-2.38,3.5-3.58,6.04-3.58Z"/>
      <path class="cls-9" d="m304,1.12h105.75c2.38,0,3.58,1.12,3.58,3.35v18.33c0,2.24-1.19,3.35-3.58,3.35h-80.27v50.08h73.11c2.24,0,3.35,1.12,3.35,3.35v17.66c0,2.24-1.12,3.35-3.35,3.35h-73.11v68.19c0,2.24-1.12,3.35-3.35,3.35h-22.13c-2.24,0-3.35-1.12-3.35-3.35V4.47c0-2.24,1.12-3.35,3.35-3.35Z"/>
      <path class="cls-9" d="m480.04,4.25c-6.56-2.83-14.91-4.25-25.04-4.25-7.91,0-14.76.82-20.57,2.46-2.39.59-3.58,1.94-3.58,4.02v14.31c0,2.24,1.26,3.35,3.8,3.35h13.42c7,0,11.7.79,14.08,2.35,2.38,1.57,3.58,4.74,3.58,9.5v133.24c0,1.62,1.31,2.93,2.93,2.93h21.86c1.62,0,2.93-1.31,2.93-2.93V28.62c0-12.52-4.47-20.65-13.41-24.37Z"/>
    </g>
  </g>
</svg>