<svg width="52" height="52" viewBox="0 0 52 52" fill="none" xmlns="http://www.w3.org/2000/svg">
<path d="M48.3438 4.875H3.65625C2.9023 4.87583 2.17946 5.17571 1.64634 5.70884C1.11321 6.24196 0.813333 6.9648 0.8125 7.71875V37.7812C0.813333 38.5352 1.11321 39.258 1.64634 39.7912C2.17946 40.3243 2.9023 40.6242 3.65625 40.625H20.1338L19.6463 43.0625H16.25C16.0345 43.0625 15.8278 43.1481 15.6755 43.3005C15.5231 43.4528 15.4375 43.6595 15.4375 43.875V46.3125C15.4375 46.528 15.5231 46.7347 15.6755 46.887C15.8278 47.0394 16.0345 47.125 16.25 47.125H35.75C35.9655 47.125 36.1722 47.0394 36.3245 46.887C36.4769 46.7347 36.5625 46.528 36.5625 46.3125V43.875C36.5625 43.6595 36.4769 43.4528 36.3245 43.3005C36.1722 43.1481 35.9655 43.0625 35.75 43.0625H32.3537L31.8663 40.625H48.3438C49.0977 40.6242 49.8205 40.3243 50.3537 39.7912C50.8868 39.258 51.1867 38.5352 51.1875 37.7812V7.71875C51.1867 6.9648 50.8868 6.24196 50.3537 5.70884C49.8205 5.17571 49.0977 4.87583 48.3438 4.875ZM34.9375 44.6875V45.5H17.0625V44.6875H34.9375ZM21.3037 43.0625L21.7912 40.625H30.2088L30.6962 43.0625H21.3037ZM49.5625 37.7812C49.5622 38.1044 49.4337 38.4142 49.2052 38.6427C48.9767 38.8712 48.6669 38.9997 48.3438 39H3.65625C3.3331 38.9997 3.02326 38.8712 2.79476 38.6427C2.56626 38.4142 2.43777 38.1044 2.4375 37.7812V35.75H49.5625V37.7812ZM49.5625 34.125H2.4375V7.71875C2.43777 7.3956 2.56626 7.08576 2.79476 6.85726C3.02326 6.62876 3.3331 6.50027 3.65625 6.5H48.3438C48.6669 6.50027 48.9767 6.62876 49.2052 6.85726C49.4337 7.08576 49.5622 7.3956 49.5625 7.71875V34.125Z" fill="black"/>
<path d="M26.8125 36.5625H25.1875C24.972 36.5625 24.7653 36.6481 24.613 36.8005C24.4606 36.9528 24.375 37.1595 24.375 37.375C24.375 37.5905 24.4606 37.7972 24.613 37.9495C24.7653 38.1019 24.972 38.1875 25.1875 38.1875H26.8125C27.028 38.1875 27.2347 38.1019 27.387 37.9495C27.5394 37.7972 27.625 37.5905 27.625 37.375C27.625 37.1595 27.5394 36.9528 27.387 36.8005C27.2347 36.6481 27.028 36.5625 26.8125 36.5625Z" fill="black"/>
<g clip-path="url(#clip0_23_318)">
<path d="M37.4971 27.4629C39.9611 27.4629 41.9658 25.4582 41.9658 22.9941C41.9658 20.5301 39.9611 18.5254 37.4971 18.5254C35.033 18.5254 33.0283 20.5301 33.0283 22.9941C33.0283 25.4582 35.033 27.4629 37.4971 27.4629ZM37.4971 19.4191C39.4682 19.4191 41.0721 21.023 41.0721 22.9941C41.0721 24.9653 39.4682 26.5691 37.4971 26.5691C35.5259 26.5691 33.9221 24.9653 33.9221 22.9941C33.9221 21.023 35.5259 19.4191 37.4971 19.4191Z" fill="black" stroke="black" stroke-width="0.3"/>
<path d="M37.4969 24.3344C37.2506 24.3344 37.05 24.1337 37.05 23.8875H36.1562C36.1562 24.4693 36.5312 24.9609 37.05 25.1459V25.675H37.9438V25.1459C38.4626 24.9609 38.8375 24.4693 38.8375 23.8875C38.8375 23.1484 38.236 22.5469 37.4969 22.5469C37.2506 22.5469 37.05 22.3462 37.05 22.1C37.05 21.8538 37.2506 21.6531 37.4969 21.6531C37.7431 21.6531 37.9438 21.8538 37.9438 22.1H38.8375C38.8375 21.5182 38.4626 21.0266 37.9438 20.8416V20.3125H37.05V20.8416C36.5312 21.0266 36.1562 21.5182 36.1562 22.1C36.1562 22.8391 36.7577 23.4406 37.4969 23.4406C37.7431 23.4406 37.9438 23.6413 37.9438 23.8875C37.9438 24.1337 37.7431 24.3344 37.4969 24.3344Z" fill="black" stroke="black" stroke-width="0.3"/>
<path d="M42.5497 28.3563C42.4049 28.3563 42.2628 28.3822 42.1269 28.4327L39.5172 29.4113C39.4327 29.4431 39.3469 29.4725 39.2611 29.4989C39.2763 29.418 39.2843 29.3349 39.2843 29.25C39.2843 28.5109 38.6828 27.9094 37.9437 27.9094H36.2425L36.1625 27.8772C35.283 27.5255 34.375 27.2815 33.4481 27.1448C33.3141 25.7604 32.3319 24.6083 30.9515 24.2897L27.6656 23.5318V22.5384C28.7484 21.7219 29.4531 20.4296 29.4531 18.9719C30.4389 18.9719 31.2406 18.1702 31.2406 17.1844C31.2406 16.7353 31.0685 16.3291 30.7937 16.0145V13.1621C30.7937 12.0703 30.0059 11.1587 28.9691 10.9657C28.8878 10.5246 28.676 10.1188 28.352 9.79485C27.9297 9.373 27.3689 9.14062 26.7718 9.14062H22.75C20.7788 9.14062 19.175 10.7445 19.175 12.7156V16.0145C18.9001 16.3291 18.7281 16.7353 18.7281 17.1844C18.7281 18.1702 19.5298 18.9719 20.5156 18.9719C20.5156 20.4296 21.2203 21.7219 22.3031 22.5384V23.5318L19.0172 24.2901C17.5314 24.6329 16.4937 25.9373 16.4946 27.4348L16.0477 34.5848C16.0401 34.7077 16.0835 34.8288 16.1679 34.9186C16.2524 35.0084 16.3704 35.0594 16.4937 35.0594H33.475C33.5983 35.0594 33.7163 35.0084 33.8007 34.9186C33.8852 34.8288 33.9285 34.7077 33.9209 34.5848L33.8137 32.871L35.4738 33.4935C35.8729 33.6428 36.2912 33.7188 36.717 33.7188C37.3011 33.7188 37.8812 33.5726 38.3955 33.2956L43.0037 30.8141C43.4657 30.5652 43.7531 30.0843 43.7531 29.5597C43.7531 28.8961 43.2133 28.3563 42.5497 28.3563ZM32.541 27.0491C32.4056 27.0398 32.2702 27.0313 32.1343 27.0263V26.5688C32.1343 26.3221 31.9341 26.1219 31.6875 26.1219H29.0062C28.7595 26.1219 28.5593 26.3221 28.5593 26.5688V32.825C28.5593 33.0717 28.7595 33.2719 29.0062 33.2719H29.9V34.1656H26.7196L25.8973 27.5863L26.6016 26.647L26.9399 26.9178C27.0216 26.9834 27.1204 27.0156 27.2187 27.0156C27.342 27.0156 27.4649 26.9647 27.553 26.8659L29.3543 24.8393L30.7504 25.1615C31.6848 25.3769 32.373 26.1174 32.541 27.0491ZM29.4531 32.3781V27.0156H31.2406V32.3781H29.4531ZM22.7138 24.3545L24.1062 24.9113L22.8022 25.9547L21.6069 24.6101L22.7138 24.3545ZM27.2549 24.3545L28.3618 24.6101L27.1664 25.9547L25.8624 24.9113L27.2549 24.3545ZM24.9843 25.3532L25.9031 26.0884L25.2078 27.0156H24.7609L24.0656 26.0884L24.9843 25.3532ZM24.9321 27.9094H25.0371L25.8191 34.1656H24.15L24.9321 27.9094ZM29.4531 18.0781V16.2906C29.946 16.2906 30.3468 16.6915 30.3468 17.1844C30.3468 17.6773 29.946 18.0781 29.4531 18.0781ZM19.6218 17.1844C19.6218 16.6915 20.0227 16.2906 20.5156 16.2906V18.0781C20.0227 18.0781 19.6218 17.6773 19.6218 17.1844ZM20.5156 15.3969C20.3605 15.3969 20.2126 15.4228 20.0687 15.4603V12.7156C20.0687 11.2369 21.2713 10.0344 22.75 10.0344H26.7718C27.511 10.0344 28.1125 10.6359 28.1125 11.375C28.1125 11.6217 28.3127 11.8219 28.5593 11.8219C29.298 11.8219 29.8995 12.4234 29.8995 13.1625V15.4608C29.7561 15.4228 29.6082 15.3969 29.4531 15.3969C29.4531 15.24 29.3709 15.0943 29.2364 15.0139L27.002 13.6733C26.7969 13.5504 26.5323 13.6103 26.4 13.8087C25.9237 14.5232 25.126 14.95 24.2671 14.95H20.9625C20.7158 14.95 20.5156 15.1502 20.5156 15.3969ZM21.4093 18.9719V15.8438H24.2671C25.282 15.8438 26.2325 15.4022 26.8849 14.6452L28.5593 15.6498V18.9719C28.5593 20.943 26.9555 22.5469 24.9843 22.5469C23.0132 22.5469 21.4093 20.943 21.4093 18.9719ZM24.9843 23.4406C25.6198 23.4406 26.224 23.3052 26.7718 23.0648V23.5845L24.9843 24.2995L23.1968 23.5845V23.0648C23.7447 23.3052 24.3489 23.4406 24.9843 23.4406ZM17.3875 27.4625C17.3875 26.356 18.1404 25.41 19.2183 25.1611L20.6143 24.8389L22.4157 26.8655C22.5042 26.9647 22.6266 27.0156 22.75 27.0156C22.8483 27.0156 22.9466 26.9834 23.0288 26.9178L23.3671 26.647L24.0714 27.5863L23.2491 34.1656H20.0687V29.25H19.175V34.1656H16.9692L17.3875 27.4625ZM30.7937 34.1656V33.2719H31.6875C31.9341 33.2719 32.1343 33.0717 32.1343 32.825V32.4023C32.3926 32.4282 32.6478 32.4755 32.898 32.5457L32.9995 34.1656H30.7937ZM42.58 30.0271L37.9719 32.5086C37.3074 32.8661 36.4954 32.9215 35.788 32.6561L33.5751 31.8262C33.1099 31.652 32.6268 31.5447 32.1343 31.504V27.9304C33.4035 27.9809 34.6462 28.2334 35.8304 28.707L35.99 28.771C36.0432 28.7924 36.0995 28.8031 36.1562 28.8031H37.9437C38.1899 28.8031 38.3906 29.0038 38.3906 29.25C38.3906 29.4962 38.1899 29.6969 37.9437 29.6969H35.2625V30.5906H37.9437C38.5908 30.5906 39.2258 30.4753 39.8313 30.2483L42.4406 29.2697C42.6372 29.1964 42.8593 29.3519 42.8593 29.5597C42.8593 29.7554 42.7521 29.9346 42.58 30.0271Z" fill="black" stroke="black" stroke-width="0.3"/>
</g>
<defs>
<clipPath id="clip0_23_318">
<rect width="28.6" height="28.6" fill="white" transform="translate(15.6001 7.7998)"/>
</clipPath>
</defs>
</svg>
