<svg width="127" height="41" viewBox="0 0 127 41" fill="none" xmlns="http://www.w3.org/2000/svg">
<path d="M94.8677 40.9144V39.8586H95.9684V40.9144H94.8677Z" fill="#010D34"/>
<path d="M98.639 40.9144V34.2084H103.161V34.9314H99.5315V37.1476H102.933V37.8706H99.5315V40.1915H103.161V40.9144H98.639Z" fill="#010D34"/>
<path d="M107.434 41C106.998 41 106.614 40.9017 106.284 40.7051C105.953 40.5085 105.695 40.2232 105.51 39.849C105.325 39.4749 105.233 39.031 105.233 38.5174C105.233 38.0037 105.325 37.563 105.51 37.1952C105.695 36.8211 105.953 36.5357 106.284 36.3391C106.614 36.1425 106.998 36.0443 107.434 36.0443C107.877 36.0443 108.26 36.1521 108.584 36.3677C108.915 36.5769 109.133 36.8655 109.239 37.2333H109.12L109.229 36.1299H110.102C110.082 36.3201 110.062 36.5103 110.042 36.7006C110.029 36.8908 110.022 37.0779 110.022 37.2618V40.9144H109.12V39.8205H109.229C109.123 40.182 108.905 40.4705 108.574 40.6861C108.25 40.8954 107.87 41 107.434 41ZM107.642 40.3151C108.092 40.3151 108.452 40.1629 108.723 39.8586C108.994 39.5542 109.13 39.1071 109.13 38.5174C109.13 37.9276 108.994 37.4837 108.723 37.1857C108.452 36.8877 108.092 36.7386 107.642 36.7386C107.193 36.7386 106.829 36.8877 106.551 37.1857C106.28 37.4837 106.145 37.9276 106.145 38.5174C106.145 39.1071 106.28 39.5542 106.551 39.8586C106.823 40.1629 107.186 40.3151 107.642 40.3151Z" fill="#010D34"/>
<path d="M112.733 40.9144V37.2998C112.733 37.1096 112.727 36.9162 112.713 36.7196C112.707 36.5167 112.69 36.3201 112.664 36.1299H113.536L113.645 37.3284L113.497 37.3379C113.563 37.0462 113.675 36.8052 113.834 36.615C113.999 36.4184 114.194 36.2757 114.419 36.1869C114.65 36.0918 114.888 36.0443 115.133 36.0443C115.239 36.0443 115.328 36.0474 115.401 36.0538C115.473 36.0601 115.546 36.076 115.619 36.1013L115.599 36.8718C115.5 36.8337 115.407 36.8116 115.321 36.8052C115.242 36.7925 115.143 36.7862 115.024 36.7862C114.733 36.7862 114.482 36.8496 114.27 36.9764C114.065 37.1033 113.907 37.2713 113.794 37.4806C113.688 37.6898 113.636 37.9149 113.636 38.1559V40.9144H112.733Z" fill="#010D34"/>
<path d="M119.758 41C119.235 41 118.839 40.8637 118.568 40.591C118.303 40.312 118.171 39.8934 118.171 39.3354V36.7957H117.199V36.1299H118.171V34.8457L119.073 34.6079V36.1299H120.482V36.7957H119.073V39.2593C119.073 39.6271 119.14 39.8903 119.272 40.0488C119.411 40.201 119.609 40.2771 119.867 40.2771C119.999 40.2771 120.111 40.2676 120.204 40.2485C120.303 40.2232 120.392 40.1946 120.472 40.1629V40.8763C120.373 40.9144 120.257 40.9429 120.125 40.9619C119.999 40.9873 119.877 41 119.758 41Z" fill="#010D34"/>
<path d="M122.637 40.9144V33.9136H123.539V37.1667H123.41C123.556 36.7989 123.791 36.5199 124.115 36.3296C124.438 36.1394 124.812 36.0443 125.235 36.0443C125.837 36.0443 126.28 36.1996 126.564 36.5103C126.855 36.8211 127 37.2903 127 37.9181V40.9144H126.098V37.9657C126.098 37.5408 126.012 37.2333 125.84 37.043C125.668 36.8464 125.387 36.7481 124.997 36.7481C124.561 36.7481 124.207 36.8781 123.936 37.1381C123.672 37.3981 123.539 37.7437 123.539 38.1749V40.9144H122.637Z" fill="#010D34"/>
<path d="M94.8677 40.9144V39.8586H95.9684V40.9144H94.8677Z" fill="#010D34"/>
<path d="M107.434 41C106.998 41 106.614 40.9017 106.284 40.7051C105.953 40.5085 105.695 40.2232 105.51 39.849C105.325 39.4749 105.233 39.031 105.233 38.5174C105.233 38.0037 105.325 37.563 105.51 37.1952C105.695 36.8211 105.953 36.5357 106.284 36.3391C106.614 36.1425 106.998 36.0443 107.434 36.0443C107.877 36.0443 108.26 36.1521 108.584 36.3677C108.915 36.5769 109.133 36.8655 109.239 37.2333H109.12L109.229 36.1299H110.102C110.082 36.3201 110.062 36.5103 110.042 36.7006C110.029 36.8908 110.022 37.0779 110.022 37.2618V40.9144H109.12V39.8205H109.229C109.123 40.182 108.905 40.4705 108.574 40.6861C108.25 40.8954 107.87 41 107.434 41ZM107.642 40.3151C108.092 40.3151 108.452 40.1629 108.723 39.8586C108.994 39.5542 109.13 39.1071 109.13 38.5174C109.13 37.9276 108.994 37.4837 108.723 37.1857C108.452 36.8877 108.092 36.7386 107.642 36.7386C107.193 36.7386 106.829 36.8877 106.551 37.1857C106.28 37.4837 106.145 37.9276 106.145 38.5174C106.145 39.1071 106.28 39.5542 106.551 39.8586C106.823 40.1629 107.186 40.3151 107.642 40.3151Z" fill="#010D34"/>
<path d="M112.733 40.9144V37.2998C112.733 37.1096 112.727 36.9162 112.713 36.7196C112.707 36.5167 112.69 36.3201 112.664 36.1299H113.536L113.645 37.3284L113.497 37.3379C113.563 37.0462 113.675 36.8052 113.834 36.615C113.999 36.4184 114.194 36.2757 114.419 36.1869C114.65 36.0918 114.888 36.0443 115.133 36.0443C115.239 36.0443 115.328 36.0474 115.401 36.0538C115.473 36.0601 115.546 36.076 115.619 36.1013L115.599 36.8718C115.5 36.8337 115.407 36.8116 115.321 36.8052C115.242 36.7925 115.143 36.7862 115.024 36.7862C114.733 36.7862 114.482 36.8496 114.27 36.9764C114.065 37.1033 113.907 37.2713 113.794 37.4806C113.688 37.6898 113.636 37.9149 113.636 38.1559V40.9144H112.733Z" fill="#010D34"/>
<path d="M119.758 41C119.235 41 118.839 40.8637 118.568 40.591C118.303 40.312 118.171 39.8934 118.171 39.3354V36.7957H117.199V36.1299H118.171V34.8457L119.073 34.6079V36.1299H120.482V36.7957H119.073V39.2593C119.073 39.6271 119.14 39.8903 119.272 40.0488C119.411 40.201 119.609 40.2771 119.867 40.2771C119.999 40.2771 120.111 40.2676 120.204 40.2485C120.303 40.2232 120.392 40.1946 120.472 40.1629V40.8763C120.373 40.9144 120.257 40.9429 120.125 40.9619C119.999 40.9873 119.877 41 119.758 41Z" fill="#010D34"/>
<path d="M122.637 40.9144V33.9136H123.539V37.1667H123.41C123.556 36.7989 123.791 36.5199 124.115 36.3296C124.438 36.1394 124.812 36.0443 125.235 36.0443C125.837 36.0443 126.28 36.1996 126.564 36.5103C126.855 36.8211 127 37.2903 127 37.9181V40.9144H126.098V37.9657C126.098 37.5408 126.012 37.2333 125.84 37.043C125.668 36.8464 125.387 36.7481 124.997 36.7481C124.561 36.7481 124.207 36.8781 123.936 37.1381C123.672 37.3981 123.539 37.7437 123.539 38.1749V40.9144H122.637Z" fill="#010D34"/>
<path d="M11.1654 30.5749V5.69126H2.04004V1.28781H24.6053V5.69126H16.5V30.5749H11.1654Z" fill="#010D34"/>
<path d="M27.5472 30.5749V1.28781H32.7164V13.7919H32.1375C32.7716 12.2964 33.7503 11.161 35.0736 10.3855C36.3969 9.58236 37.9132 9.18079 39.6225 9.18079C42.1037 9.18079 43.9508 9.887 45.1639 11.2994C46.3769 12.6842 46.9835 14.8028 46.9835 17.6553V30.5749H41.8142V17.9046C41.8142 16.2706 41.4972 15.0936 40.8631 14.3735C40.2566 13.6258 39.2779 13.2519 37.927 13.2519C36.3556 13.2519 35.0874 13.7504 34.1225 14.7474C33.1851 15.7167 32.7164 17.0184 32.7164 18.6524V30.5749H27.5472Z" fill="#010D34"/>
<path d="M50.9757 30.5749V14.9551C50.9757 14.0689 50.9481 13.1688 50.893 12.2549C50.8654 11.341 50.7965 10.4547 50.6862 9.59621H55.69L56.269 15.329H55.4419C55.7176 13.9443 56.1725 12.7949 56.8066 11.881C57.4682 10.9671 58.2677 10.2886 59.2051 9.84546C60.1424 9.40234 61.1625 9.18079 62.2652 9.18079C62.7615 9.18079 63.1612 9.20848 63.4645 9.26387L65.2559 13.8127C64.7321 13.5912 63.3542 13.6812 62.9683 13.6258C62.6099 13.5704 62.155 13.5427 61.6036 13.5427C60.4181 13.5427 59.4118 13.7919 58.5848 14.2904C57.7853 14.789 57.1787 15.4813 56.7652 16.3675C56.3792 17.2538 56.1863 18.2646 56.1863 19.4001V30.5749H50.9757Z" fill="#010D34"/>
<path d="M67.6764 40.0049L66.4772 35.8923C67.7729 35.6153 68.8619 35.2968 69.7441 34.9368C70.6263 34.5768 71.3569 34.106 71.9359 33.5244C72.5148 32.9428 72.9973 32.195 73.3832 31.2811L74.4171 28.8301L74.293 30.8657L65.1952 9.59621H70.6952L77.2291 25.9637H76.0299L84.6728 5.44201H89.8833L78.3043 31.7381C77.6702 33.2336 76.981 34.466 76.2366 35.4353C75.4923 36.4323 74.6928 37.2216 73.8381 37.8032C72.9835 38.4125 72.0461 38.8833 71.0261 39.2156C70.006 39.548 68.8895 39.8111 67.6764 40.0049Z" fill="#010D34"/>
<path d="M94.199 30.5749L87.8764 16.3675L90.6839 9.59621L97.2178 26.0053H95.9358L102.635 9.59621H107.804L98.7479 30.5749H94.199Z" fill="#010D34"/>
<path d="M118.812 30.9903C115.311 30.9903 112.567 30.021 110.582 28.0824C108.597 26.1438 107.605 23.4851 107.605 20.1063C107.605 17.9184 108.032 16.0075 108.887 14.3735C109.742 12.7395 110.927 11.4656 112.443 10.5517C113.987 9.63775 115.779 9.18079 117.819 9.18079C119.832 9.18079 121.514 9.61005 122.864 10.4686C124.215 11.3271 125.235 12.5318 125.925 14.0827C126.641 15.6336 127 17.4476 127 19.5247V20.8956H111.782V18.1539H123.319L122.616 18.7354C122.616 16.7968 122.203 15.3152 121.376 14.2904C120.576 13.2657 119.405 12.7534 117.861 12.7534C116.151 12.7534 114.828 13.3627 113.891 14.5812C112.981 15.7998 112.526 17.503 112.526 19.6909V20.231C112.526 22.5019 113.077 24.2051 114.18 25.3406C115.311 26.4484 116.896 27.0023 118.936 27.0023C120.121 27.0023 121.224 26.85 122.244 26.5453C123.292 26.213 124.284 25.6868 125.222 24.9667L126.752 28.4563C125.759 29.2594 124.574 29.8825 123.195 30.3256C121.817 30.7688 120.356 30.9903 118.812 30.9903Z" fill="#010D34"/>
</svg>
