<svg width="48" height="48" viewBox="0 0 48 48" fill="none" xmlns="http://www.w3.org/2000/svg">
<g id="transaction-history">
<path id="Vector" d="M16.5114 16.374C16.5114 15.9598 16.8472 15.624 17.2614 15.624H27.1569C27.5711 15.624 27.9069 15.9598 27.9069 16.374C27.9069 16.7882 27.5711 17.124 27.1569 17.124H17.2614C16.8472 17.124 16.5114 16.7882 16.5114 16.374ZM27.9069 20.1957C27.9069 19.7815 27.5711 19.4457 27.1569 19.4457H17.2614C16.8472 19.4457 16.5114 19.7815 16.5114 20.1957C16.5114 20.6099 16.8472 20.9457 17.2614 20.9457H27.1569C27.5711 20.9457 27.9069 20.6099 27.9069 20.1957ZM9.40217 22.8547C9.40217 23.2688 9.73798 23.6047 10.1522 23.6047C10.5664 23.6047 10.9022 23.2688 10.9022 22.8547V22.5186C11.6439 22.3843 12.2909 22.0507 12.7015 21.5759C13.1057 21.1087 13.2783 20.5238 13.2006 19.8848C13.0456 18.6075 12.0629 17.8114 10.2802 17.5187C8.86104 17.2858 8.83517 16.7511 8.82532 16.5498C8.78848 15.7921 9.60617 15.5677 9.77051 15.5305C10.4332 15.3802 11.2522 15.5849 11.5866 16.3813C11.7469 16.7633 12.1872 16.9428 12.5685 16.7825C12.9504 16.6222 13.13 16.1826 12.9696 15.8006C12.5494 14.7994 11.7467 14.261 10.9021 14.0694V13.7149C10.9021 13.3007 10.5663 12.9649 10.1521 12.9649C9.73789 12.9649 9.40207 13.3007 9.40207 13.7149V14.0762C8.10036 14.3867 7.26795 15.4058 7.32711 16.6225C7.37014 17.5107 7.87535 18.644 10.0371 18.9989C11.4342 19.2282 11.6659 19.6895 11.7115 20.0657C11.7381 20.2852 11.6936 20.4483 11.5669 20.5947C11.3255 20.8738 10.7876 21.0701 10.2284 21.0834C9.58311 21.0989 8.76017 20.8363 8.56301 20.046C8.46279 19.6442 8.05629 19.3996 7.65382 19.4997C7.25192 19.5999 7.00732 20.007 7.10754 20.4089C7.37679 21.4889 8.25532 22.2663 9.40207 22.5063L9.40217 22.8547ZM18.5839 26.3966H8.68845C8.27426 26.3966 7.93845 26.7324 7.93845 27.1466C7.93845 27.5608 8.27426 27.8966 8.68845 27.8966H18.5839C18.9981 27.8966 19.3339 27.5608 19.3339 27.1466C19.3339 26.7324 18.9981 26.3966 18.5839 26.3966ZM18.5839 30.2183H8.68845C8.27426 30.2183 7.93845 30.5542 7.93845 30.9683C7.93845 31.3825 8.27426 31.7183 8.68845 31.7183H18.5839C18.9981 31.7183 19.3339 31.3825 19.3339 30.9683C19.3339 30.5542 18.9981 30.2183 18.5839 30.2183ZM42.8838 23.2192C42.8838 25.2279 42.0172 27.0378 40.6385 28.2953V37.9976C40.6385 38.8253 39.9652 39.4986 39.1376 39.4986H36.7628V41.8733C36.7628 42.701 36.0895 43.3744 35.2619 43.3744H32.8871V45.7492C32.8871 46.5768 32.2137 47.2501 31.3861 47.2501H4.14889C3.32126 47.2501 2.64795 46.5768 2.64795 45.7492V10.0024C2.64795 9.17475 3.32126 8.50144 4.14889 8.50144H6.52367V6.12675C6.52367 5.29912 7.19707 4.62581 8.0247 4.62581H10.3994V2.25103C10.3994 1.42341 11.0728 0.75 11.9004 0.75H34.9213C35.328 0.75 35.695 0.902063 35.9826 1.18959L40.199 5.406C40.4865 5.69334 40.6385 6.06038 40.6385 6.46734V12.0507C40.6385 12.4649 40.3027 12.8007 39.8885 12.8007C39.4744 12.8007 39.1385 12.4649 39.1385 12.0507V6.90628H35.6078C34.9872 6.90628 34.4823 6.40134 34.4823 5.78081V2.25037L11.9004 2.25L11.8997 4.62581H31.0454C31.4521 4.62581 31.819 4.77778 32.1066 5.06531L36.3232 9.28181C36.6108 9.56944 36.7627 9.93638 36.7627 10.3432V12.0508C36.7627 12.465 36.4269 12.8008 36.0127 12.8008C35.5985 12.8008 35.2627 12.465 35.2627 12.0508V10.7821H31.7319C31.1114 10.7821 30.6064 10.2772 30.6064 9.65662V6.12628L8.0247 6.12581L8.02395 8.50153H27.1698C27.5765 8.50153 27.9436 8.6535 28.2311 8.94103L32.4475 13.1574C32.7351 13.4451 32.8871 13.812 32.8871 14.2188V17.1037C33.8255 16.6221 34.8875 16.3483 36.0129 16.3483C39.8015 16.3484 42.8838 19.4306 42.8838 23.2192ZM35.9823 3.31088V5.40628H38.0774L35.9823 3.31088ZM32.1065 7.1865V9.282H34.2018L32.1065 7.1865ZM28.2308 11.0623V13.1578H30.326L28.2308 11.0623ZM11.7034 39.5982H9.28695V45.7493L11.7034 45.7493V39.5982ZM18.9757 34.7491H16.5592V45.7494L18.9757 45.7495V34.7491ZM26.2481 36.3815H23.8316V45.7497L26.2481 45.7498V36.3815ZM39.1384 29.3349C38.2 29.8164 37.1381 30.0901 36.0129 30.0901C32.2243 30.0901 29.142 27.0079 29.142 23.2192C29.142 21.2107 30.0085 19.4008 31.3871 18.1433V14.6577H27.8563C27.2358 14.6577 26.7308 14.1528 26.7308 13.5322V10.0019L4.14889 10.0014L4.14795 45.7491L7.78685 45.7492V38.8481C7.78685 38.4339 8.12267 38.0981 8.53685 38.0981H12.4533C12.8674 38.0981 13.2033 38.4339 13.2033 38.8481V45.7493L15.0591 45.7494V33.9991C15.0591 33.5849 15.3949 33.2491 15.8091 33.2491H19.7256C20.1398 33.2491 20.4756 33.5849 20.4756 33.9991V45.7496L22.3315 45.7497V35.6315C22.3315 35.2173 22.6673 34.8815 23.0815 34.8815H26.998C27.4122 34.8815 27.748 35.2173 27.748 35.6315V45.7498L31.3861 45.75L31.3871 34.8666C31.3871 34.4524 31.7229 34.1166 32.1371 34.1166C32.5513 34.1166 32.8871 34.4524 32.8871 34.8666V41.8743H35.2619L35.2628 34.8666C35.2628 34.4524 35.5986 34.1166 36.0128 34.1166C36.427 34.1166 36.7628 34.4524 36.7628 34.8666V37.9985H39.1376L39.1384 29.3349ZM41.3838 23.2192C41.3838 20.2578 38.9744 17.8484 36.0129 17.8484C33.0514 17.8484 30.642 20.2578 30.642 23.2192C30.642 26.1807 33.0514 28.5901 36.0129 28.5901C38.9744 28.5901 41.3838 26.1807 41.3838 23.2192ZM36.1399 22.4571C35.0284 22.2746 35.0095 21.8886 35.0025 21.7432C34.9764 21.2061 35.5411 21.0357 35.7148 20.9963C36.0993 20.9093 36.8288 20.9485 37.1234 21.6503C37.2839 22.0321 37.7235 22.2116 38.1053 22.0513C38.4872 21.8909 38.6668 21.4514 38.5064 21.0694C38.1483 20.2165 37.4779 19.7427 36.7628 19.5564V19.3459C36.7628 18.9317 36.427 18.5959 36.0128 18.5959C35.5986 18.5959 35.2628 18.9317 35.2628 19.3459V19.5633C34.1549 19.8638 33.4527 20.7554 33.5043 21.8158C33.5358 22.4665 33.8886 23.6075 35.8969 23.9372C37.1483 24.1426 37.1993 24.5629 37.2211 24.7423C37.2444 24.9351 37.1859 25.0324 37.1254 25.1021C36.9408 25.3157 36.5185 25.4663 36.0747 25.4768C35.572 25.4895 34.9275 25.2885 34.7768 24.6842C34.6767 24.2824 34.2704 24.0377 33.8676 24.1379C33.4657 24.2381 33.2211 24.6452 33.3214 25.0471C33.5535 25.9778 34.2926 26.6553 35.2627 26.8887V27.0925C35.2627 27.5067 35.5985 27.8425 36.0127 27.8425C36.4269 27.8425 36.7627 27.5067 36.7627 27.0925V26.9017C37.3777 26.7726 37.9129 26.4848 38.2601 26.0834C38.6242 25.6623 38.7799 25.1362 38.7101 24.5617C38.572 23.4225 37.7073 22.7144 36.1399 22.4571ZM45.0638 13.6947L42.7662 11.9003C42.4398 11.6452 41.9684 11.7032 41.7135 12.0298C41.4585 12.3562 41.5164 12.8276 41.8429 13.0825L42.4233 13.5358H36.0127C35.5985 13.5358 35.2627 13.8716 35.2627 14.2858C35.2627 14.7 35.5985 15.0358 36.0127 15.0358H42.4232L41.8429 15.489C41.5164 15.7439 41.4584 16.2152 41.7134 16.5417C41.8612 16.7312 42.082 16.8301 42.305 16.8301C42.4665 16.8301 42.629 16.7783 42.7661 16.6712L45.0637 14.8769C45.2457 14.7348 45.3521 14.5167 45.3521 14.2858C45.3521 14.0549 45.2458 13.8368 45.0638 13.6947ZM29.6025 31.4027L30.1827 30.9496C30.5091 30.6946 30.5672 30.2233 30.3123 29.8969C30.0571 29.5703 29.5859 29.5123 29.2595 29.7673L26.9618 31.5616C26.7799 31.7038 26.6734 31.9219 26.6734 32.1528C26.6734 32.3837 26.7799 32.6018 26.9618 32.7439L29.2595 34.5382C29.3966 34.6454 29.5592 34.6972 29.7206 34.6972C29.9436 34.6972 30.1643 34.5981 30.3123 34.4088C30.5673 34.0823 30.5093 33.611 30.1828 33.3561L29.6024 32.9028H36.0128C36.427 32.9028 36.7628 32.567 36.7628 32.1528C36.7628 31.7386 36.427 31.4028 36.0128 31.4028H29.6025V31.4027Z" fill="black"/>
</g>
</svg>
